<?xml version="1.0" encoding="UTF-8"?>
<svg xmlns="http://www.w3.org/2000/svg" xmlns:xlink="http://www.w3.org/1999/xlink" width="32px" height="26px" viewBox="0 0 32 26" version="1.1">
<g id="surface1">
<path style=" stroke:none;fill-rule:evenodd;fill:rgb(94.901961%,94.901961%,94.901961%);fill-opacity:1;" d="M 0 13.003906 L 0 26.007812 L 32 26.007812 L 32 0 L 0 0 L 0 13.003906 M 29.355469 2.679688 C 29.667969 2.832031 29.835938 3.03125 30.09375 3.558594 C 30.460938 4.296875 30.457031 4.398438 30.074219 4.929688 C 29.984375 5.058594 29.847656 5.28125 29.773438 5.421875 C 29.53125 5.894531 29.375 6.082031 29.015625 6.328125 C 28.785156 6.484375 28.625 6.644531 28.453125 6.890625 C 28.246094 7.1875 28.078125 7.355469 27.785156 7.566406 C 27.5 7.777344 27.417969 7.859375 27.171875 8.191406 C 26.960938 8.480469 26.835938 8.605469 26.570312 8.789062 C 26.304688 8.976562 26.183594 9.101562 25.976562 9.390625 C 25.769531 9.679688 25.597656 9.851562 25.332031 10.039062 C 25.0625 10.226562 24.941406 10.351562 24.738281 10.636719 C 24.527344 10.929688 24.394531 11.0625 24.066406 11.308594 C 23.78125 11.515625 23.707031 11.59375 23.523438 11.859375 C 23.335938 12.128906 23.164062 12.300781 22.875 12.511719 C 22.589844 12.714844 22.46875 12.839844 22.28125 13.109375 C 22.09375 13.378906 21.921875 13.550781 21.636719 13.757812 C 21.351562 13.960938 21.257812 14.054688 21.054688 14.34375 C 20.84375 14.632812 20.703125 14.777344 20.421875 14.980469 C 20.132812 15.1875 20.011719 15.308594 19.824219 15.578125 C 19.640625 15.847656 19.46875 16.023438 19.179688 16.230469 C 18.894531 16.433594 18.769531 16.558594 18.585938 16.828125 C 18.402344 17.089844 18.226562 17.269531 17.964844 17.457031 C 17.664062 17.675781 17.574219 17.761719 17.371094 18.050781 C 17.164062 18.339844 16.992188 18.511719 16.722656 18.699219 C 16.457031 18.886719 16.335938 19.011719 16.128906 19.296875 C 15.921875 19.585938 15.75 19.761719 15.484375 19.949219 C 15.214844 20.136719 15.09375 20.257812 14.886719 20.546875 C 14.679688 20.835938 14.519531 21 14.214844 21.214844 C 13.957031 21.402344 13.855469 21.503906 13.671875 21.769531 C 13.488281 22.039062 13.316406 22.210938 13.027344 22.417969 C 12.738281 22.628906 12.628906 22.738281 12.394531 23.0625 C 12.152344 23.402344 12.019531 23.511719 11.59375 23.71875 C 11.394531 23.816406 11.121094 23.960938 10.984375 24.042969 C 10.582031 24.285156 10.433594 24.304688 10.09375 24.171875 C 9.066406 23.777344 8.816406 23.613281 8.320312 23.027344 C 8.21875 22.90625 8.054688 22.738281 7.960938 22.660156 C 7.652344 22.398438 7.484375 22.230469 7.210938 21.910156 C 7.0625 21.738281 6.867188 21.53125 6.773438 21.453125 C 6.324219 21.074219 6.1875 20.9375 5.957031 20.667969 C 5.816406 20.507812 5.613281 20.296875 5.496094 20.195312 C 5.140625 19.886719 4.9375 19.683594 4.742188 19.441406 C 4.546875 19.195312 4.332031 18.980469 4.074219 18.765625 C 3.902344 18.621094 3.664062 18.375 3.457031 18.128906 C 3.378906 18.035156 3.175781 17.828125 3.003906 17.664062 C 2.414062 17.109375 2.3125 16.882812 2.3125 16.085938 L 2.3125 15.566406 L 2.394531 15.394531 C 2.5 15.171875 2.714844 14.957031 2.941406 14.84375 L 3.113281 14.757812 L 3.617188 14.765625 C 4.476562 14.769531 4.667969 14.859375 5.117188 15.460938 C 5.320312 15.730469 5.394531 15.804688 5.660156 15.992188 C 5.933594 16.1875 6.128906 16.382812 6.332031 16.671875 C 6.539062 16.960938 6.597656 17.019531 6.933594 17.265625 C 7.246094 17.496094 7.332031 17.582031 7.578125 17.910156 C 7.796875 18.195312 7.902344 18.300781 8.128906 18.46875 C 8.375 18.644531 8.597656 18.875 8.804688 19.164062 C 9.058594 19.511719 9.144531 19.574219 9.792969 19.90625 C 10.578125 20.304688 10.550781 20.308594 11.328125 19.695312 C 11.578125 19.5 11.800781 19.296875 11.949219 19.128906 C 12.078125 18.984375 12.3125 18.746094 12.46875 18.597656 C 12.625 18.445312 12.992188 18.082031 13.285156 17.789062 C 13.578125 17.492188 13.914062 17.164062 14.03125 17.058594 C 14.152344 16.953125 14.382812 16.710938 14.550781 16.519531 C 14.714844 16.328125 15.003906 16.03125 15.191406 15.863281 C 15.378906 15.691406 15.640625 15.425781 15.777344 15.273438 C 15.910156 15.121094 16.148438 14.882812 16.300781 14.75 C 16.457031 14.613281 16.703125 14.375 16.851562 14.21875 C 17.667969 13.355469 19.835938 11.175781 20.195312 10.859375 C 20.308594 10.757812 20.527344 10.53125 20.6875 10.351562 C 21.023438 9.972656 21.0625 9.929688 21.4375 9.585938 C 21.589844 9.445312 21.824219 9.207031 21.953125 9.054688 C 22.082031 8.90625 22.347656 8.640625 22.539062 8.46875 C 22.730469 8.300781 22.964844 8.074219 23.054688 7.972656 C 23.25 7.757812 23.625 7.382812 23.9375 7.085938 C 24.054688 6.972656 24.273438 6.742188 24.417969 6.578125 C 24.566406 6.410156 24.820312 6.148438 24.992188 5.996094 C 25.160156 5.84375 25.4375 5.570312 25.605469 5.390625 C 25.925781 5.046875 26.089844 4.886719 26.414062 4.601562 C 26.519531 4.511719 26.738281 4.285156 26.898438 4.105469 C 27.0625 3.921875 27.324219 3.65625 27.484375 3.511719 C 27.644531 3.371094 27.878906 3.160156 28.003906 3.046875 C 28.539062 2.570312 28.921875 2.464844 29.355469 2.679688 "/>
<path style=" stroke:none;fill-rule:evenodd;fill:rgb(90.980392%,30.980392%,6.27451%);fill-opacity:1;" d="M 28.648438 2.621094 C 28.449219 2.691406 28.261719 2.816406 28.003906 3.046875 C 27.878906 3.160156 27.644531 3.371094 27.484375 3.511719 C 27.324219 3.65625 27.0625 3.921875 26.898438 4.105469 C 26.738281 4.285156 26.519531 4.511719 26.414062 4.601562 C 26.089844 4.886719 25.925781 5.046875 25.605469 5.390625 C 25.4375 5.570312 25.160156 5.84375 24.992188 5.996094 C 24.820312 6.148438 24.566406 6.410156 24.417969 6.578125 C 24.273438 6.742188 24.054688 6.972656 23.9375 7.085938 C 23.625 7.382812 23.25 7.757812 23.054688 7.972656 C 22.964844 8.074219 22.730469 8.300781 22.539062 8.46875 C 22.347656 8.640625 22.082031 8.90625 21.953125 9.054688 C 21.824219 9.207031 21.589844 9.445312 21.4375 9.585938 C 21.0625 9.929688 21.023438 9.972656 20.6875 10.351562 C 20.527344 10.53125 20.308594 10.757812 20.195312 10.859375 C 19.835938 11.175781 17.667969 13.355469 16.851562 14.21875 C 16.703125 14.375 16.457031 14.613281 16.300781 14.75 C 16.148438 14.882812 15.910156 15.121094 15.777344 15.273438 C 15.640625 15.425781 15.378906 15.691406 15.191406 15.863281 C 15.003906 16.03125 14.714844 16.328125 14.550781 16.519531 C 14.382812 16.710938 14.152344 16.953125 14.03125 17.058594 C 13.914062 17.164062 13.578125 17.492188 13.285156 17.789062 C 12.992188 18.082031 12.625 18.445312 12.46875 18.597656 C 12.3125 18.746094 12.078125 18.984375 11.949219 19.128906 C 11.800781 19.296875 11.578125 19.5 11.328125 19.695312 C 10.550781 20.308594 10.578125 20.304688 9.792969 19.90625 C 9.144531 19.574219 9.058594 19.511719 8.804688 19.164062 C 8.597656 18.875 8.375 18.644531 8.128906 18.46875 C 7.902344 18.300781 7.796875 18.195312 7.578125 17.910156 C 7.332031 17.582031 7.246094 17.496094 6.933594 17.265625 C 6.597656 17.019531 6.539062 16.960938 6.332031 16.671875 C 6.128906 16.382812 5.933594 16.1875 5.660156 15.992188 C 5.394531 15.804688 5.320312 15.730469 5.117188 15.460938 C 4.667969 14.859375 4.476562 14.769531 3.617188 14.765625 L 3.113281 14.757812 L 2.941406 14.84375 C 2.714844 14.957031 2.5 15.171875 2.394531 15.394531 L 2.3125 15.566406 L 2.3125 16.085938 C 2.3125 16.882812 2.414062 17.109375 3.003906 17.664062 C 3.175781 17.828125 3.378906 18.035156 3.457031 18.128906 C 3.664062 18.375 3.902344 18.621094 4.074219 18.765625 C 4.332031 18.980469 4.546875 19.195312 4.742188 19.441406 C 4.9375 19.683594 5.140625 19.886719 5.496094 20.195312 C 5.613281 20.296875 5.816406 20.507812 5.957031 20.667969 C 6.1875 20.9375 6.324219 21.074219 6.773438 21.453125 C 6.867188 21.53125 7.0625 21.738281 7.210938 21.910156 C 7.484375 22.230469 7.652344 22.398438 7.960938 22.660156 C 8.054688 22.738281 8.21875 22.90625 8.320312 23.027344 C 8.816406 23.613281 9.066406 23.777344 10.09375 24.171875 C 10.433594 24.304688 10.582031 24.285156 10.984375 24.042969 C 11.121094 23.960938 11.394531 23.816406 11.59375 23.71875 C 12.019531 23.511719 12.152344 23.402344 12.394531 23.0625 C 12.628906 22.738281 12.738281 22.628906 13.027344 22.417969 C 13.316406 22.210938 13.488281 22.039062 13.671875 21.769531 C 13.855469 21.503906 13.957031 21.402344 14.214844 21.214844 C 14.519531 21 14.679688 20.835938 14.886719 20.546875 C 15.09375 20.257812 15.214844 20.136719 15.484375 19.949219 C 15.75 19.761719 15.921875 19.585938 16.128906 19.296875 C 16.335938 19.011719 16.457031 18.886719 16.722656 18.699219 C 16.992188 18.511719 17.164062 18.339844 17.371094 18.050781 C 17.574219 17.761719 17.664062 17.675781 17.964844 17.457031 C 18.226562 17.269531 18.402344 17.089844 18.585938 16.828125 C 18.769531 16.558594 18.894531 16.433594 19.179688 16.230469 C 19.46875 16.023438 19.640625 15.847656 19.824219 15.578125 C 20.011719 15.308594 20.132812 15.1875 20.421875 14.980469 C 20.703125 14.777344 20.84375 14.632812 21.054688 14.34375 C 21.257812 14.054688 21.351562 13.960938 21.636719 13.757812 C 21.921875 13.550781 22.09375 13.378906 22.28125 13.109375 C 22.46875 12.839844 22.589844 12.714844 22.875 12.511719 C 23.164062 12.300781 23.335938 12.128906 23.523438 11.859375 C 23.707031 11.59375 23.78125 11.515625 24.066406 11.308594 C 24.394531 11.0625 24.527344 10.929688 24.738281 10.636719 C 24.941406 10.351562 25.0625 10.226562 25.332031 10.039062 C 25.597656 9.851562 25.769531 9.679688 25.976562 9.390625 C 26.183594 9.101562 26.304688 8.976562 26.570312 8.789062 C 26.835938 8.605469 26.960938 8.480469 27.171875 8.191406 C 27.417969 7.859375 27.5 7.777344 27.785156 7.566406 C 28.078125 7.355469 28.246094 7.1875 28.453125 6.890625 C 28.625 6.644531 28.785156 6.484375 29.015625 6.328125 C 29.375 6.082031 29.53125 5.894531 29.773438 5.421875 C 29.847656 5.28125 29.984375 5.058594 30.074219 4.929688 C 30.457031 4.398438 30.460938 4.296875 30.09375 3.558594 C 29.695312 2.746094 29.195312 2.425781 28.648438 2.621094 "/>
</g>
</svg>
