<svg id="svg" xmlns="http://www.w3.org/2000/svg" xmlns:xlink="http://www.w3.org/1999/xlink" width="400" height="323.07692307692304" viewBox="0, 0, 400,323.07692307692304" version="1.1"><g id="svgg"><path id="path0" d="M0.000 161.551 L 0.000 323.102 200.000 323.102 L 400.000 323.102 400.000 161.551 L 400.000 0.000 200.000 0.000 L 0.000 0.000 0.000 161.551 M367.134 33.374 C 371.250 35.409,373.620 38.422,377.217 46.195 C 380.619 53.546,380.499 54.965,375.946 61.228 C 374.783 62.827,373.081 65.590,372.165 67.367 C 369.136 73.240,367.164 75.580,362.682 78.621 C 359.808 80.571,357.820 82.552,355.659 85.622 C 353.061 89.312,350.998 91.393,347.334 94.021 C 343.744 96.596,342.711 97.639,339.659 101.777 C 337.013 105.365,335.468 106.893,332.149 109.208 C 328.809 111.538,327.278 113.068,324.716 116.640 C 322.138 120.233,319.988 122.384,316.640 124.718 C 313.301 127.046,311.770 128.577,309.208 132.149 C 306.606 135.776,304.945 137.422,300.808 140.469 C 297.261 143.082,296.343 144.011,294.025 147.334 C 291.688 150.684,289.537 152.834,285.945 155.411 C 282.373 157.974,280.842 159.505,278.515 162.843 C 276.180 166.192,274.029 168.342,270.436 170.919 C 266.898 173.456,265.738 174.616,263.162 178.191 C 260.563 181.796,258.799 183.561,255.250 186.106 C 251.678 188.668,250.148 190.199,247.820 193.538 C 245.485 196.886,243.335 199.037,239.742 201.614 C 236.169 204.177,234.638 205.708,232.311 209.047 C 230.033 212.315,227.840 214.529,224.556 216.878 C 220.791 219.570,219.672 220.677,217.122 224.233 C 214.546 227.825,212.396 229.976,209.047 232.311 C 205.708 234.638,204.177 236.169,201.614 239.742 C 199.037 243.335,196.886 245.485,193.538 247.820 C 190.199 250.147,188.668 251.678,186.105 255.250 C 183.519 258.856,181.470 260.887,177.706 263.574 C 174.469 265.885,173.203 267.166,170.922 270.436 C 168.587 273.785,166.436 275.935,162.843 278.513 C 159.229 281.105,157.866 282.485,154.950 286.504 C 151.892 290.716,150.221 292.073,144.911 294.649 C 142.423 295.856,139.006 297.667,137.318 298.674 C 132.276 301.683,130.441 301.952,126.171 300.310 C 113.333 295.372,110.192 293.354,104.013 286.076 C 102.713 284.546,100.697 282.489,99.533 281.506 C 95.664 278.240,93.570 276.164,90.144 272.195 C 88.278 270.033,85.822 267.481,84.687 266.523 C 79.076 261.789,77.327 260.125,74.445 256.779 C 72.727 254.783,70.142 252.132,68.702 250.889 C 64.263 247.055,61.742 244.546,59.285 241.519 C 56.818 238.479,54.131 235.777,50.933 233.124 C 48.788 231.343,45.816 228.294,43.213 225.202 C 42.241 224.047,39.685 221.456,37.532 219.444 C 30.119 212.515,28.919 209.783,28.918 199.838 L 28.918 193.376 29.954 191.188 C 31.316 188.313,33.870 185.759,36.745 184.397 L 38.934 183.360 45.073 183.380 C 55.565 183.414,58.554 184.742,63.582 191.599 C 66.147 195.096,67.317 196.246,70.759 198.648 C 74.649 201.362,76.572 203.285,79.112 207.004 C 81.354 210.287,82.748 211.690,86.107 214.044 C 90.004 216.774,91.648 218.334,94.047 221.575 C 97.209 225.845,98.133 226.778,102.336 229.935 C 105.999 232.687,107.181 233.946,110.607 238.744 C 113.159 242.318,114.506 243.291,122.436 247.287 C 132.237 252.225,131.869 252.275,141.595 244.679 C 144.729 242.232,147.493 239.735,149.378 237.647 C 150.986 235.867,153.907 232.884,155.869 231.018 C 157.831 229.152,162.420 224.631,166.067 220.972 C 169.714 217.313,173.914 213.243,175.399 211.928 C 176.885 210.612,179.793 207.593,181.861 205.217 C 183.930 202.842,187.540 199.171,189.885 197.059 C 192.230 194.948,195.526 191.656,197.210 189.744 C 198.893 187.832,201.845 184.900,203.770 183.227 C 205.695 181.555,208.796 178.581,210.662 176.619 C 220.844 165.911,247.945 138.851,252.458 134.885 C 253.854 133.657,256.616 130.831,258.594 128.605 C 262.773 123.901,263.300 123.366,267.962 119.089 C 269.883 117.326,272.789 114.357,274.419 112.492 C 276.049 110.627,279.346 107.360,281.745 105.232 C 284.144 103.104,287.044 100.329,288.189 99.066 C 290.622 96.383,295.298 91.699,299.195 88.041 C 300.707 86.622,303.428 83.767,305.243 81.697 C 307.058 79.627,310.275 76.389,312.394 74.503 C 314.512 72.616,317.976 69.220,320.092 66.958 C 324.081 62.691,326.116 60.719,330.177 57.181 C 331.492 56.036,334.224 53.246,336.249 50.981 C 338.274 48.716,341.560 45.415,343.552 43.645 C 345.543 41.875,348.471 39.270,350.058 37.855 C 356.806 31.842,361.527 30.603,367.134 33.374 " stroke="none" fill="#fcfcfc" fill-rule="evenodd"></path><path id="path1" d="M358.116 32.562 C 355.618 33.455,353.255 35.006,350.058 37.855 C 348.471 39.270,345.543 41.875,343.552 43.645 C 341.560 45.415,338.274 48.716,336.249 50.981 C 334.224 53.246,331.492 56.036,330.177 57.181 C 326.116 60.719,324.081 62.691,320.092 66.958 C 317.976 69.220,314.512 72.616,312.394 74.503 C 310.275 76.389,307.058 79.627,305.243 81.697 C 303.428 83.767,300.707 86.622,299.195 88.041 C 295.298 91.699,290.622 96.383,288.189 99.066 C 287.044 100.329,284.144 103.104,281.745 105.232 C 279.346 107.360,276.049 110.627,274.419 112.492 C 272.789 114.357,269.883 117.326,267.962 119.089 C 263.300 123.366,262.773 123.901,258.594 128.605 C 256.616 130.831,253.854 133.657,252.458 134.885 C 247.945 138.851,220.844 165.911,210.662 176.619 C 208.796 178.581,205.695 181.555,203.770 183.227 C 201.845 184.900,198.893 187.832,197.210 189.744 C 195.526 191.656,192.230 194.948,189.885 197.059 C 187.540 199.171,183.930 202.842,181.861 205.217 C 179.793 207.593,176.885 210.612,175.399 211.928 C 173.914 213.243,169.714 217.313,166.067 220.972 C 162.420 224.631,157.831 229.152,155.869 231.018 C 153.907 232.884,150.986 235.867,149.378 237.647 C 147.493 239.735,144.729 242.232,141.595 244.679 C 131.869 252.275,132.237 252.225,122.436 247.287 C 114.506 243.291,113.159 242.318,110.607 238.744 C 107.181 233.946,105.999 232.687,102.336 229.935 C 98.133 226.778,97.209 225.845,94.047 221.575 C 91.648 218.334,90.004 216.774,86.107 214.044 C 82.748 211.690,81.354 210.287,79.112 207.004 C 76.572 203.285,74.649 201.362,70.759 198.648 C 67.317 196.246,66.147 195.096,63.582 191.599 C 58.554 184.742,55.565 183.414,45.073 183.380 L 38.934 183.360 36.745 184.397 C 33.870 185.759,31.316 188.313,29.954 191.188 L 28.918 193.376 28.918 199.838 C 28.919 209.783,30.119 212.515,37.532 219.444 C 39.685 221.456,42.241 224.047,43.213 225.202 C 45.816 228.294,48.788 231.343,50.933 233.124 C 54.131 235.777,56.818 238.479,59.285 241.519 C 61.742 244.546,64.263 247.055,68.702 250.889 C 70.142 252.132,72.727 254.783,74.445 256.779 C 77.327 260.125,79.076 261.789,84.687 266.523 C 85.822 267.481,88.278 270.033,90.144 272.195 C 93.570 276.164,95.664 278.240,99.533 281.506 C 100.697 282.489,102.713 284.546,104.013 286.076 C 110.192 293.354,113.333 295.372,126.171 300.310 C 130.441 301.952,132.276 301.683,137.318 298.674 C 139.006 297.667,142.423 295.856,144.911 294.649 C 150.221 292.073,151.892 290.716,154.950 286.504 C 157.866 282.485,159.229 281.105,162.843 278.513 C 166.436 275.935,168.587 273.785,170.922 270.436 C 173.203 267.166,174.469 265.885,177.706 263.574 C 181.470 260.887,183.519 258.856,186.105 255.250 C 188.668 251.678,190.199 250.147,193.538 247.820 C 196.886 245.485,199.037 243.335,201.614 239.742 C 204.177 236.169,205.708 234.638,209.047 232.311 C 212.396 229.976,214.546 227.825,217.122 224.233 C 219.672 220.677,220.791 219.570,224.556 216.878 C 227.840 214.529,230.033 212.315,232.311 209.047 C 234.638 205.708,236.169 204.177,239.742 201.614 C 243.335 199.037,245.485 196.886,247.820 193.538 C 250.148 190.199,251.678 188.668,255.250 186.106 C 258.799 183.561,260.563 181.796,263.162 178.191 C 265.738 174.616,266.898 173.456,270.436 170.919 C 274.029 168.342,276.180 166.192,278.515 162.843 C 280.842 159.505,282.373 157.974,285.945 155.411 C 289.537 152.834,291.688 150.684,294.025 147.334 C 296.343 144.011,297.261 143.082,300.808 140.469 C 304.945 137.422,306.606 135.776,309.208 132.149 C 311.770 128.577,313.301 127.046,316.640 124.718 C 319.988 122.384,322.138 120.233,324.716 116.640 C 327.278 113.068,328.809 111.538,332.149 109.208 C 335.468 106.893,337.013 105.365,339.659 101.777 C 342.711 97.639,343.744 96.596,347.334 94.021 C 350.998 91.393,353.061 89.312,355.659 85.622 C 357.820 82.552,359.808 80.571,362.682 78.621 C 367.164 75.580,369.136 73.240,372.165 67.367 C 373.081 65.590,374.783 62.827,375.946 61.228 C 380.499 54.965,380.619 53.546,377.217 46.195 C 371.802 34.493,365.433 29.947,358.116 32.562 " stroke="none" fill="#e94f10" fill-rule="evenodd"></path></g></svg>