<svg id="svg" version="1.1" xmlns="http://www.w3.org/2000/svg" xmlns:xlink="http://www.w3.org/1999/xlink" width="400" height="746.6666666666667" viewBox="0, 0, 400,746.6666666666667"><g id="svgg"><path id="path0" d="M366.000 14.400 C 366.000 14.620,365.190 14.800,364.200 14.800 C 362.867 14.800,362.400 14.956,362.400 15.400 C 362.400 15.833,361.956 16.000,360.800 16.000 C 359.920 16.000,359.200 16.180,359.200 16.400 C 359.200 16.620,358.660 16.800,358.000 16.800 C 357.340 16.800,356.800 16.980,356.800 17.200 C 356.800 17.420,356.350 17.600,355.800 17.600 C 355.250 17.600,354.800 17.780,354.800 18.000 C 354.800 18.220,354.527 18.400,354.193 18.400 C 353.401 18.400,348.400 23.401,348.400 24.193 C 348.400 24.533,348.049 24.800,347.600 24.800 C 347.160 24.800,346.800 24.993,346.800 25.229 C 346.800 25.696,345.815 26.800,345.397 26.800 C 345.254 26.800,344.446 27.520,343.600 28.400 C 342.754 29.280,341.865 30.000,341.623 30.000 C 340.937 30.000,336.800 34.306,336.800 35.020 C 336.800 35.642,335.899 36.800,335.415 36.800 C 335.281 36.800,333.385 38.600,331.200 40.800 C 329.015 43.000,326.952 44.800,326.614 44.800 C 326.276 44.800,326.000 45.070,326.000 45.400 C 326.000 45.730,325.730 46.000,325.400 46.000 C 325.070 46.000,324.800 46.276,324.800 46.614 C 324.800 46.952,323.000 49.015,320.800 51.200 C 318.600 53.385,316.800 55.281,316.800 55.415 C 316.800 55.779,315.706 56.800,315.317 56.800 C 315.130 56.800,314.717 57.160,314.400 57.600 C 314.083 58.040,313.580 58.400,313.283 58.400 C 312.623 58.400,311.600 59.374,311.600 60.003 C 311.600 60.256,310.880 61.154,310.000 62.000 C 309.120 62.846,308.400 63.821,308.400 64.169 C 308.400 64.516,308.220 64.800,308.000 64.800 C 307.780 64.800,307.600 64.988,307.600 65.218 C 307.600 65.650,305.809 67.600,305.413 67.600 C 305.121 67.600,297.600 75.121,297.600 75.413 C 297.600 75.704,295.704 77.600,295.413 77.600 C 295.121 77.600,287.600 85.121,287.600 85.413 C 287.600 85.704,285.704 87.600,285.414 87.600 C 285.116 87.600,276.800 95.926,276.800 96.224 C 276.800 96.528,275.726 97.600,275.421 97.600 C 274.986 97.600,270.000 102.780,270.000 103.232 C 270.000 103.478,269.460 104.183,268.800 104.800 C 268.140 105.417,267.600 106.037,267.600 106.179 C 267.600 106.502,265.720 108.400,265.400 108.400 C 264.983 108.400,263.200 110.348,263.200 110.804 C 263.200 111.046,262.120 112.304,260.800 113.600 C 259.480 114.896,258.400 116.069,258.400 116.206 C 258.400 116.694,257.249 117.600,256.629 117.600 C 256.283 117.600,256.000 117.780,256.000 118.000 C 256.000 118.220,255.816 118.400,255.591 118.400 C 255.035 118.400,250.800 122.670,250.800 123.231 C 250.800 123.477,250.260 124.183,249.600 124.800 C 248.940 125.417,248.400 126.035,248.400 126.174 C 248.400 126.483,245.713 129.200,245.408 129.200 C 245.121 129.200,238.400 135.921,238.400 136.208 C 238.400 136.493,235.693 139.200,235.408 139.200 C 235.121 139.200,228.400 145.921,228.400 146.208 C 228.400 146.604,225.636 149.200,225.213 149.200 C 224.986 149.200,224.800 149.479,224.800 149.819 C 224.800 150.160,223.540 151.681,222.000 153.200 C 220.460 154.719,219.200 156.068,219.200 156.199 C 219.200 156.700,217.206 158.400,216.618 158.400 C 216.278 158.400,216.000 158.580,216.000 158.800 C 216.000 159.020,215.815 159.200,215.589 159.200 C 215.032 159.200,211.600 162.666,211.600 163.229 C 211.600 163.477,211.060 164.183,210.400 164.800 C 209.740 165.417,209.200 166.033,209.200 166.171 C 209.200 166.477,205.707 170.000,205.404 170.000 C 205.103 170.000,199.200 175.930,199.200 176.233 C 199.200 176.368,198.660 176.983,198.000 177.600 C 197.340 178.217,196.800 178.932,196.800 179.189 C 196.800 179.692,195.830 180.800,195.389 180.800 C 195.242 180.800,194.617 181.340,194.000 182.000 C 193.383 182.660,192.675 183.200,192.426 183.200 C 191.973 183.200,189.200 185.776,189.200 186.197 C 189.200 186.599,185.632 190.000,185.211 190.000 C 184.985 190.000,184.800 190.320,184.800 190.712 C 184.800 191.103,184.440 191.683,184.000 192.000 C 183.560 192.317,183.200 192.813,183.200 193.102 C 183.200 193.831,180.562 196.400,179.813 196.400 C 179.476 196.400,179.200 196.588,179.200 196.818 C 179.200 197.460,177.314 199.200,176.618 199.200 C 176.278 199.200,176.000 199.380,176.000 199.600 C 176.000 199.820,175.814 200.000,175.587 200.000 C 175.027 200.000,172.400 202.659,172.400 203.226 C 172.400 203.475,171.860 204.183,171.200 204.800 C 170.540 205.417,170.000 206.215,170.000 206.574 C 170.000 207.400,167.430 210.000,166.613 210.000 C 166.276 210.000,166.000 210.180,166.000 210.400 C 166.000 210.620,165.817 210.800,165.594 210.800 C 165.063 210.800,159.200 216.663,159.200 217.194 C 159.200 217.417,159.020 217.600,158.800 217.600 C 158.580 217.600,158.400 217.920,158.400 218.312 C 158.400 218.703,158.040 219.283,157.600 219.600 C 157.160 219.917,156.800 220.420,156.800 220.717 C 156.800 221.362,155.831 222.400,155.229 222.400 C 154.993 222.400,154.800 222.580,154.800 222.800 C 154.800 223.020,154.480 223.200,154.088 223.200 C 153.697 223.200,153.117 223.560,152.800 224.000 C 152.483 224.440,151.985 224.800,151.694 224.800 C 151.163 224.800,149.200 226.543,149.200 227.013 C 149.200 227.150,148.480 227.954,147.600 228.800 C 146.720 229.646,146.000 230.621,146.000 230.969 C 146.000 231.316,145.807 231.600,145.571 231.600 C 145.003 231.600,144.000 232.623,144.000 233.203 C 144.000 233.456,143.280 234.354,142.400 235.200 C 141.520 236.046,140.800 236.931,140.800 237.169 C 140.800 237.406,140.480 237.600,140.088 237.600 C 139.697 237.600,139.117 237.960,138.800 238.400 C 138.483 238.840,137.943 239.200,137.600 239.200 C 137.257 239.200,136.717 239.560,136.400 240.000 C 136.083 240.440,135.677 240.800,135.498 240.800 C 134.965 240.800,132.400 243.531,132.400 244.098 C 132.400 244.387,132.040 244.883,131.600 245.200 C 131.160 245.517,130.800 246.102,130.800 246.499 C 130.800 247.376,127.465 250.800,126.611 250.800 C 126.275 250.800,126.000 250.980,126.000 251.200 C 126.000 251.420,125.770 251.600,125.488 251.600 C 125.207 251.600,124.717 251.960,124.400 252.400 C 124.083 252.840,123.580 253.200,123.283 253.200 C 122.986 253.200,122.486 253.457,122.171 253.771 C 121.857 254.086,121.600 254.586,121.600 254.883 C 121.600 255.180,121.240 255.683,120.800 256.000 C 120.360 256.317,120.000 256.807,120.000 257.088 C 120.000 257.370,119.820 257.600,119.600 257.600 C 119.380 257.600,119.200 257.920,119.200 258.312 C 119.200 258.703,118.840 259.283,118.400 259.600 C 117.960 259.917,117.600 260.415,117.600 260.706 C 117.600 261.285,115.838 263.200,115.306 263.200 C 115.125 263.200,114.717 263.560,114.400 264.000 C 114.083 264.440,113.503 264.800,113.112 264.800 C 112.720 264.800,112.400 264.980,112.400 265.200 C 112.400 265.420,112.117 265.600,111.771 265.600 C 111.149 265.600,110.000 266.506,110.000 266.997 C 110.000 267.137,109.100 268.129,108.000 269.200 C 106.900 270.271,106.000 271.430,106.000 271.774 C 106.000 272.118,105.730 272.400,105.400 272.400 C 105.070 272.400,104.800 272.684,104.800 273.031 C 104.800 273.379,104.080 274.354,103.200 275.200 C 102.320 276.046,101.600 276.854,101.600 276.997 C 101.600 277.493,100.454 278.400,99.829 278.400 C 99.483 278.400,99.200 278.580,99.200 278.800 C 99.200 279.020,98.912 279.200,98.560 279.200 C 98.209 279.200,97.417 279.740,96.800 280.400 C 96.183 281.060,95.565 281.600,95.426 281.600 C 94.901 281.600,92.400 284.399,92.400 284.987 C 92.400 285.324,92.220 285.600,92.000 285.600 C 91.780 285.600,91.600 285.960,91.600 286.400 C 91.600 286.840,91.420 287.200,91.200 287.200 C 90.980 287.200,90.800 287.385,90.800 287.611 C 90.800 288.257,87.289 291.600,86.611 291.600 C 86.275 291.600,86.000 291.780,86.000 292.000 C 86.000 292.220,85.770 292.400,85.488 292.400 C 85.207 292.400,84.717 292.760,84.400 293.200 C 84.083 293.640,83.580 294.000,83.283 294.000 C 82.587 294.000,81.600 294.987,81.600 295.683 C 81.600 295.980,81.240 296.483,80.800 296.800 C 80.360 297.117,80.000 297.607,80.000 297.888 C 80.000 298.170,79.820 298.400,79.600 298.400 C 79.380 298.400,79.200 298.760,79.200 299.200 C 79.200 299.640,79.020 300.000,78.800 300.000 C 78.580 300.000,78.400 300.276,78.400 300.613 C 78.400 301.299,75.858 304.000,75.213 304.000 C 74.986 304.000,74.800 304.180,74.800 304.400 C 74.800 304.620,74.480 304.800,74.088 304.800 C 73.697 304.800,73.117 305.160,72.800 305.600 C 72.483 306.040,71.980 306.400,71.683 306.400 C 71.128 306.400,70.000 307.340,70.000 307.803 C 70.000 307.946,69.280 308.754,68.400 309.600 C 67.520 310.446,66.800 311.344,66.800 311.597 C 66.800 312.177,65.797 313.200,65.229 313.200 C 64.993 313.200,64.800 313.484,64.800 313.831 C 64.800 314.179,64.080 315.154,63.200 316.000 C 62.320 316.846,61.600 317.731,61.600 317.969 C 61.600 318.206,61.280 318.400,60.888 318.400 C 60.497 318.400,59.917 318.760,59.600 319.200 C 59.283 319.640,58.775 320.000,58.472 320.000 C 58.169 320.000,57.417 320.540,56.800 321.200 C 56.183 321.860,55.563 322.400,55.421 322.400 C 54.945 322.400,53.200 324.358,53.200 324.894 C 53.200 325.185,52.840 325.683,52.400 326.000 C 51.960 326.317,51.600 326.901,51.600 327.297 C 51.600 328.171,47.463 332.400,46.609 332.400 C 46.274 332.400,46.000 332.580,46.000 332.800 C 46.000 333.020,45.730 333.200,45.400 333.200 C 45.070 333.200,44.800 333.380,44.800 333.600 C 44.800 333.820,44.522 334.000,44.182 334.000 C 43.382 334.000,41.600 335.782,41.600 336.582 C 41.600 336.922,41.420 337.200,41.200 337.200 C 40.980 337.200,40.800 337.470,40.800 337.800 C 40.800 338.130,40.620 338.400,40.400 338.400 C 40.180 338.400,40.000 338.720,40.000 339.112 C 40.000 339.503,39.640 340.083,39.200 340.400 C 38.760 340.717,38.400 341.213,38.400 341.502 C 38.400 342.287,35.735 344.800,34.902 344.800 C 34.503 344.800,33.917 345.160,33.600 345.600 C 33.283 346.040,32.780 346.400,32.483 346.400 C 31.931 346.400,30.800 347.339,30.800 347.797 C 30.800 347.937,29.900 348.929,28.800 350.000 C 27.700 351.071,26.800 352.230,26.800 352.574 C 26.800 352.918,26.620 353.200,26.400 353.200 C 26.180 353.200,26.000 353.560,26.000 354.000 C 26.000 354.440,25.807 354.800,25.571 354.800 C 24.934 354.800,24.000 355.853,24.000 356.571 C 24.000 356.917,23.820 357.200,23.600 357.200 C 23.380 357.200,23.200 357.388,23.200 357.618 C 23.200 358.168,21.358 360.000,20.805 360.000 C 20.192 360.000,17.600 362.668,17.600 363.298 C 17.600 363.587,17.240 364.083,16.800 364.400 C 16.360 364.717,16.000 365.297,16.000 365.688 C 16.000 366.080,15.730 366.400,15.400 366.400 C 14.889 366.400,14.800 367.467,14.800 373.600 C 14.800 379.733,14.889 380.800,15.400 380.800 C 15.733 380.800,16.000 381.156,16.000 381.600 C 16.000 382.040,16.180 382.400,16.400 382.400 C 16.620 382.400,16.800 382.675,16.800 383.011 C 16.800 383.706,20.151 387.200,20.818 387.200 C 21.380 387.200,22.400 388.213,22.400 388.771 C 22.400 389.007,22.580 389.200,22.800 389.200 C 23.020 389.200,23.200 389.478,23.200 389.818 C 23.200 390.514,24.940 392.400,25.582 392.400 C 25.812 392.400,26.000 392.760,26.000 393.200 C 26.000 393.640,26.180 394.000,26.400 394.000 C 26.620 394.000,26.800 394.284,26.800 394.631 C 26.800 394.979,27.520 395.954,28.400 396.800 C 29.280 397.646,30.000 398.450,30.000 398.587 C 30.000 399.023,31.945 400.800,32.421 400.800 C 32.673 400.800,33.383 401.340,34.000 402.000 C 34.617 402.660,35.499 403.200,35.960 403.200 C 36.463 403.200,36.800 403.457,36.800 403.840 C 36.800 404.191,37.340 404.983,38.000 405.600 C 38.660 406.217,39.200 407.009,39.200 407.360 C 39.200 407.712,39.380 408.000,39.600 408.000 C 39.820 408.000,40.000 408.270,40.000 408.600 C 40.000 408.930,40.180 409.200,40.400 409.200 C 40.620 409.200,40.800 409.475,40.800 409.811 C 40.800 410.665,44.224 414.000,45.101 414.000 C 45.498 414.000,46.083 414.360,46.400 414.800 C 46.717 415.240,47.213 415.600,47.502 415.600 C 48.121 415.600,50.800 418.188,50.800 418.787 C 50.800 419.014,50.980 419.200,51.200 419.200 C 51.420 419.200,51.600 419.520,51.600 419.912 C 51.600 420.303,51.960 420.883,52.400 421.200 C 52.840 421.517,53.200 422.015,53.200 422.306 C 53.200 422.842,54.945 424.800,55.421 424.800 C 55.563 424.800,56.183 425.340,56.800 426.000 C 57.417 426.660,58.132 427.200,58.389 427.200 C 58.975 427.200,60.000 428.200,60.000 428.771 C 60.000 429.007,60.275 429.200,60.611 429.200 C 61.404 429.200,64.800 432.596,64.800 433.389 C 64.800 433.725,64.993 434.000,65.229 434.000 C 65.800 434.000,66.800 435.025,66.800 435.611 C 66.800 435.868,67.340 436.583,68.000 437.200 C 68.660 437.817,69.200 438.435,69.200 438.574 C 69.200 439.016,71.955 441.600,72.426 441.600 C 72.675 441.600,73.383 442.140,74.000 442.800 C 74.617 443.460,75.235 444.000,75.374 444.000 C 75.899 444.000,78.400 446.799,78.400 447.387 C 78.400 447.724,78.580 448.000,78.800 448.000 C 79.020 448.000,79.200 448.270,79.200 448.600 C 79.200 448.930,79.380 449.200,79.600 449.200 C 79.820 449.200,80.000 449.475,80.000 449.811 C 80.000 450.604,83.396 454.000,84.189 454.000 C 84.525 454.000,84.800 454.180,84.800 454.400 C 84.800 454.620,85.070 454.800,85.400 454.800 C 85.730 454.800,86.000 454.980,86.000 455.200 C 86.000 455.420,86.276 455.600,86.613 455.600 C 87.246 455.600,90.000 458.120,90.000 458.698 C 90.000 458.877,90.360 459.283,90.800 459.600 C 91.240 459.917,91.600 460.497,91.600 460.888 C 91.600 461.280,91.780 461.600,92.000 461.600 C 92.220 461.600,92.400 461.876,92.400 462.213 C 92.400 462.801,94.901 465.600,95.426 465.600 C 95.565 465.600,96.183 466.140,96.800 466.800 C 97.417 467.460,98.209 468.000,98.560 468.000 C 98.912 468.000,99.200 468.180,99.200 468.400 C 99.200 468.620,99.560 468.800,100.000 468.800 C 100.440 468.800,100.800 468.992,100.800 469.226 C 100.800 469.460,101.700 470.529,102.800 471.600 C 103.900 472.671,104.800 473.830,104.800 474.174 C 104.800 474.518,105.070 474.800,105.400 474.800 C 105.730 474.800,106.000 475.084,106.000 475.431 C 106.000 475.779,106.720 476.754,107.600 477.600 C 108.480 478.446,109.200 479.247,109.200 479.382 C 109.200 479.818,111.960 482.400,112.426 482.400 C 112.675 482.400,113.383 482.940,114.000 483.600 C 114.617 484.260,115.237 484.800,115.379 484.800 C 115.855 484.800,117.600 486.758,117.600 487.294 C 117.600 487.585,117.960 488.083,118.400 488.400 C 118.840 488.717,119.200 489.207,119.200 489.488 C 119.200 489.770,119.380 490.000,119.600 490.000 C 119.820 490.000,120.000 490.275,120.000 490.611 C 120.000 491.404,123.396 494.800,124.189 494.800 C 124.525 494.800,124.800 494.980,124.800 495.200 C 124.800 495.420,125.070 495.600,125.400 495.600 C 125.730 495.600,126.000 495.780,126.000 496.000 C 126.000 496.220,126.276 496.400,126.613 496.400 C 127.299 496.400,130.000 498.942,130.000 499.587 C 130.000 499.814,130.180 500.000,130.400 500.000 C 130.620 500.000,130.800 500.320,130.800 500.712 C 130.800 501.103,131.160 501.683,131.600 502.000 C 132.040 502.317,132.400 502.813,132.400 503.102 C 132.400 503.669,134.965 506.400,135.498 506.400 C 135.677 506.400,136.083 506.760,136.400 507.200 C 136.717 507.640,137.220 508.000,137.517 508.000 C 138.162 508.000,139.200 508.969,139.200 509.571 C 139.200 509.807,139.475 510.000,139.811 510.000 C 140.506 510.000,144.000 513.351,144.000 514.018 C 144.000 514.580,145.013 515.600,145.571 515.600 C 145.807 515.600,146.000 515.888,146.000 516.240 C 146.000 516.591,146.540 517.383,147.200 518.000 C 147.860 518.617,148.400 519.233,148.400 519.369 C 148.400 519.853,152.791 524.000,153.303 524.000 C 153.589 524.000,154.083 524.360,154.400 524.800 C 154.717 525.240,155.130 525.600,155.317 525.600 C 155.846 525.600,156.800 526.683,156.800 527.283 C 156.800 527.580,157.160 528.083,157.600 528.400 C 158.040 528.717,158.400 529.207,158.400 529.488 C 158.400 529.770,158.580 530.000,158.800 530.000 C 159.020 530.000,159.200 530.275,159.200 530.611 C 159.200 531.355,162.573 534.800,163.301 534.800 C 163.588 534.800,164.083 535.160,164.400 535.600 C 164.717 536.040,165.207 536.400,165.488 536.400 C 165.770 536.400,166.000 536.580,166.000 536.800 C 166.000 537.020,166.278 537.200,166.618 537.200 C 167.314 537.200,169.200 538.940,169.200 539.582 C 169.200 539.812,169.380 540.000,169.600 540.000 C 169.820 540.000,170.000 540.288,170.000 540.640 C 170.000 540.991,170.540 541.783,171.200 542.400 C 171.860 543.017,172.400 543.725,172.400 543.974 C 172.400 544.489,175.003 547.200,175.498 547.200 C 175.677 547.200,176.083 547.560,176.400 548.000 C 176.717 548.440,177.297 548.800,177.688 548.800 C 178.080 548.800,178.400 548.993,178.400 549.229 C 178.400 549.791,179.421 550.800,179.990 550.800 C 180.575 550.800,182.400 552.633,182.400 553.221 C 182.400 553.473,182.940 554.183,183.600 554.800 C 184.260 555.417,184.800 556.209,184.800 556.560 C 184.800 556.912,184.986 557.200,185.213 557.200 C 185.636 557.200,188.400 559.796,188.400 560.192 C 188.400 560.479,195.121 567.200,195.408 567.200 C 195.911 567.200,198.400 570.024,198.400 570.595 C 198.400 571.346,202.567 575.600,203.303 575.600 C 203.589 575.600,204.083 575.960,204.400 576.400 C 204.717 576.840,205.123 577.200,205.302 577.200 C 205.677 577.200,208.400 579.852,208.400 580.218 C 208.400 580.353,209.120 581.154,210.000 582.000 C 210.880 582.846,211.600 583.736,211.600 583.979 C 211.600 584.426,214.985 588.000,215.408 588.000 C 215.808 588.000,217.600 589.947,217.600 590.382 C 217.600 590.612,217.874 590.800,218.209 590.800 C 218.894 590.800,223.200 594.949,223.200 595.609 C 223.200 596.056,224.989 598.000,225.400 598.000 C 225.700 598.000,227.600 599.889,227.600 600.187 C 227.600 600.479,235.121 608.000,235.413 608.000 C 235.907 608.000,237.600 610.005,237.600 610.589 C 237.600 611.341,242.566 616.400,243.304 616.400 C 243.590 616.400,244.083 616.760,244.400 617.200 C 244.717 617.640,245.125 618.000,245.306 618.000 C 245.694 618.000,247.600 619.846,247.600 620.221 C 247.600 620.363,248.140 620.983,248.800 621.600 C 249.460 622.217,250.000 622.922,250.000 623.168 C 250.000 623.620,254.986 628.800,255.421 628.800 C 255.726 628.800,256.800 629.872,256.800 630.176 C 256.800 630.481,265.119 638.800,265.424 638.800 C 265.781 638.800,266.800 639.899,266.800 640.283 C 266.800 640.470,267.160 640.883,267.600 641.200 C 268.040 641.517,268.400 642.009,268.400 642.294 C 268.400 642.900,274.997 649.600,275.594 649.600 C 275.817 649.600,276.000 649.782,276.000 650.004 C 276.000 650.423,285.013 659.600,285.424 659.600 C 285.727 659.600,286.800 660.673,286.800 660.976 C 286.800 661.388,295.175 669.600,295.595 669.600 C 295.818 669.600,296.000 669.962,296.000 670.405 C 296.000 671.366,304.080 679.600,305.024 679.600 C 305.845 679.600,306.800 680.564,306.800 681.394 C 306.800 681.751,307.880 683.104,309.200 684.400 C 310.520 685.696,311.600 686.959,311.600 687.206 C 311.600 687.827,312.627 688.800,313.283 688.800 C 313.580 688.800,314.083 689.160,314.400 689.600 C 314.717 690.040,315.207 690.400,315.488 690.400 C 315.770 690.400,316.000 690.586,316.000 690.813 C 316.000 691.040,317.980 693.194,320.400 695.600 C 323.121 698.305,324.800 700.285,324.800 700.787 C 324.800 701.243,325.064 701.600,325.400 701.600 C 325.730 701.600,326.000 701.780,326.000 702.000 C 326.000 702.220,326.272 702.400,326.605 702.400 C 327.526 702.400,334.800 709.851,334.800 710.795 C 334.800 711.238,334.993 711.600,335.229 711.600 C 335.787 711.600,336.800 712.620,336.800 713.182 C 336.800 713.801,340.269 717.200,340.901 717.200 C 341.188 717.200,341.683 717.560,342.000 718.000 C 342.317 718.440,342.857 718.800,343.200 718.800 C 343.543 718.800,344.083 719.160,344.400 719.600 C 344.717 720.040,345.207 720.400,345.488 720.400 C 345.770 720.400,346.000 720.582,346.000 720.805 C 346.000 721.897,354.404 729.600,355.595 729.600 C 356.258 729.600,356.800 729.780,356.800 730.000 C 356.800 730.220,357.340 730.400,358.000 730.400 C 358.800 730.400,359.200 730.600,359.200 731.000 C 359.200 731.433,359.644 731.600,360.800 731.600 C 361.680 731.600,362.400 731.780,362.400 732.000 C 362.400 732.220,363.210 732.400,364.200 732.400 C 365.190 732.400,366.000 732.580,366.000 732.800 C 366.000 733.020,366.360 733.200,366.800 733.200 C 367.240 733.200,367.600 733.020,367.600 732.800 C 367.600 732.580,368.140 732.400,368.800 732.400 C 369.460 732.400,370.000 732.220,370.000 732.000 C 370.000 731.780,370.360 731.600,370.800 731.600 C 371.244 731.600,371.600 731.333,371.600 731.000 C 371.600 730.667,371.956 730.400,372.400 730.400 C 372.840 730.400,373.200 730.220,373.200 730.000 C 373.200 729.780,373.560 729.600,374.000 729.600 C 374.440 729.600,374.800 729.420,374.800 729.200 C 374.800 728.980,374.982 728.800,375.205 728.800 C 375.985 728.800,383.200 721.224,383.200 720.405 C 383.200 719.962,383.380 719.600,383.600 719.600 C 383.820 719.600,384.000 719.240,384.000 718.800 C 384.000 718.360,384.180 718.000,384.400 718.000 C 384.620 718.000,384.800 717.640,384.800 717.200 C 384.800 716.756,385.067 716.400,385.400 716.400 C 385.800 716.400,386.000 716.000,386.000 715.200 C 386.000 714.540,386.180 714.000,386.400 714.000 C 386.620 714.000,386.800 713.640,386.800 713.200 C 386.800 712.760,386.620 712.400,386.400 712.400 C 386.180 712.400,386.000 711.410,386.000 710.200 C 386.000 708.511,385.861 708.000,385.400 708.000 C 384.947 708.000,384.800 707.511,384.800 706.000 C 384.800 704.900,384.620 704.000,384.400 704.000 C 384.180 704.000,384.000 703.460,384.000 702.800 C 384.000 702.140,383.820 701.600,383.600 701.600 C 383.380 701.600,383.200 701.238,383.200 700.795 C 383.200 700.087,376.036 692.400,375.377 692.400 C 374.980 692.400,374.000 691.281,374.000 690.829 C 374.000 690.593,373.820 690.400,373.600 690.400 C 373.380 690.400,373.200 690.080,373.200 689.688 C 373.200 689.297,372.840 688.717,372.400 688.400 C 371.960 688.083,371.600 687.590,371.600 687.304 C 371.600 686.459,366.495 681.600,365.607 681.600 C 365.163 681.600,364.800 681.410,364.800 681.178 C 364.800 680.946,363.720 679.696,362.400 678.400 C 361.080 677.104,360.000 675.804,360.000 675.510 C 360.000 675.217,359.640 674.717,359.200 674.400 C 358.760 674.083,358.400 673.543,358.400 673.200 C 358.400 672.857,358.040 672.317,357.600 672.000 C 357.160 671.683,356.800 671.270,356.800 671.083 C 356.800 670.601,355.739 669.600,355.229 669.600 C 354.993 669.600,354.800 669.420,354.800 669.200 C 354.800 668.980,354.480 668.800,354.088 668.800 C 353.697 668.800,353.117 668.440,352.800 668.000 C 352.483 667.560,351.989 667.200,351.703 667.200 C 350.975 667.200,346.800 662.950,346.800 662.209 C 346.800 661.874,346.620 661.600,346.400 661.600 C 346.180 661.600,346.000 661.330,346.000 661.000 C 346.000 660.670,345.730 660.400,345.400 660.400 C 345.070 660.400,344.800 660.125,344.800 659.789 C 344.800 659.087,341.446 655.600,340.771 655.600 C 340.523 655.600,339.817 655.060,339.200 654.400 C 338.583 653.740,337.831 653.200,337.528 653.200 C 337.225 653.200,336.717 652.840,336.400 652.400 C 336.083 651.960,335.593 651.600,335.312 651.600 C 335.030 651.600,334.800 651.222,334.800 650.760 C 334.800 650.299,334.260 649.417,333.600 648.800 C 332.940 648.183,332.400 647.431,332.400 647.128 C 332.400 646.825,332.040 646.317,331.600 646.000 C 331.160 645.683,330.800 645.180,330.800 644.883 C 330.800 644.219,329.825 643.200,329.189 643.200 C 328.932 643.200,328.217 642.660,327.600 642.000 C 326.983 641.340,326.101 640.800,325.640 640.800 C 325.178 640.800,324.800 640.610,324.800 640.378 C 324.800 640.146,323.720 638.896,322.400 637.600 C 321.080 636.304,320.000 634.964,320.000 634.622 C 320.000 634.280,319.820 634.000,319.600 634.000 C 319.380 634.000,319.200 633.712,319.200 633.360 C 319.200 633.009,318.660 632.217,318.000 631.600 C 317.340 630.983,316.800 630.358,316.800 630.211 C 316.800 629.787,315.701 628.800,315.229 628.800 C 314.993 628.800,314.800 628.620,314.800 628.400 C 314.800 628.180,314.440 628.000,314.000 628.000 C 313.560 628.000,313.200 627.820,313.200 627.600 C 313.200 627.380,312.927 627.200,312.593 627.200 C 311.801 627.200,306.800 622.199,306.800 621.407 C 306.800 621.073,306.620 620.800,306.400 620.800 C 306.180 620.800,306.000 620.350,306.000 619.800 C 306.000 619.250,305.808 618.800,305.574 618.800 C 305.340 618.800,304.271 617.900,303.200 616.800 C 302.129 615.700,301.010 614.800,300.714 614.800 C 300.419 614.800,299.917 614.440,299.600 614.000 C 299.283 613.560,298.775 613.200,298.472 613.200 C 298.169 613.200,297.417 612.660,296.800 612.000 C 296.183 611.340,295.481 610.800,295.240 610.800 C 294.998 610.800,294.800 610.390,294.800 609.888 C 294.800 609.387,294.440 608.717,294.000 608.400 C 293.560 608.083,293.200 607.543,293.200 607.200 C 293.200 606.857,292.840 606.317,292.400 606.000 C 291.960 605.683,291.600 605.185,291.600 604.894 C 291.600 604.207,289.793 602.400,289.106 602.400 C 288.815 602.400,288.317 602.040,288.000 601.600 C 287.683 601.160,287.103 600.800,286.712 600.800 C 286.320 600.800,286.000 600.530,286.000 600.200 C 286.000 599.870,285.816 599.600,285.591 599.600 C 284.993 599.600,280.800 595.309,280.800 594.697 C 280.800 594.411,280.440 593.917,280.000 593.600 C 279.560 593.283,279.200 592.743,279.200 592.400 C 279.200 592.057,278.840 591.517,278.400 591.200 C 277.960 590.883,277.600 590.475,277.600 590.294 C 277.600 589.672,275.637 588.000,274.906 588.000 C 274.505 588.000,273.917 587.640,273.600 587.200 C 273.283 586.760,272.789 586.400,272.503 586.400 C 271.775 586.400,267.600 582.150,267.600 581.409 C 267.600 581.074,267.420 580.800,267.200 580.800 C 266.980 580.800,266.800 580.530,266.800 580.200 C 266.800 579.870,266.620 579.600,266.400 579.600 C 266.180 579.600,266.000 579.240,266.000 578.800 C 266.000 578.360,265.806 578.000,265.569 578.000 C 265.331 578.000,264.446 577.280,263.600 576.400 C 262.754 575.520,261.818 574.800,261.520 574.800 C 261.221 574.800,260.717 574.440,260.400 574.000 C 260.083 573.560,259.587 573.200,259.298 573.200 C 258.679 573.200,256.000 570.612,256.000 570.013 C 256.000 569.786,255.730 569.600,255.400 569.600 C 255.070 569.600,254.800 569.280,254.800 568.888 C 254.800 568.497,254.440 567.917,254.000 567.600 C 253.560 567.283,253.200 566.743,253.200 566.400 C 253.200 566.057,252.840 565.517,252.400 565.200 C 251.960 564.883,251.600 564.385,251.600 564.094 C 251.600 563.450,249.812 561.600,249.190 561.600 C 248.621 561.600,247.600 560.591,247.600 560.029 C 247.600 559.793,247.240 559.600,246.800 559.600 C 246.360 559.600,246.000 559.420,246.000 559.200 C 246.000 558.980,245.816 558.800,245.591 558.800 C 244.993 558.800,240.800 554.509,240.800 553.897 C 240.800 553.611,240.440 553.117,240.000 552.800 C 239.560 552.483,239.200 551.943,239.200 551.600 C 239.200 551.257,238.840 550.717,238.400 550.400 C 237.960 550.083,237.600 549.670,237.600 549.483 C 237.600 548.882,236.480 548.000,235.717 548.000 C 235.310 548.000,234.717 547.640,234.400 547.200 C 234.083 546.760,233.590 546.400,233.304 546.400 C 232.576 546.400,227.600 541.347,227.600 540.607 C 227.600 540.273,227.420 540.000,227.200 540.000 C 226.980 540.000,226.800 539.730,226.800 539.400 C 226.800 539.070,226.620 538.800,226.400 538.800 C 226.180 538.800,226.000 538.440,226.000 538.000 C 226.000 537.560,225.806 537.200,225.569 537.200 C 225.331 537.200,224.446 536.480,223.600 535.600 C 222.754 534.720,221.818 534.000,221.520 534.000 C 221.221 534.000,220.717 533.640,220.400 533.200 C 220.083 532.760,219.587 532.400,219.298 532.400 C 218.679 532.400,216.000 529.812,216.000 529.213 C 216.000 528.986,215.730 528.800,215.400 528.800 C 215.067 528.800,214.800 528.444,214.800 528.000 C 214.800 527.560,214.620 527.200,214.400 527.200 C 214.180 527.200,214.000 526.927,214.000 526.594 C 214.000 525.803,208.197 520.000,207.406 520.000 C 207.073 520.000,206.800 519.807,206.800 519.571 C 206.800 518.927,205.744 518.000,205.010 518.000 C 204.232 518.000,202.400 516.250,202.400 515.506 C 202.400 515.215,202.040 514.717,201.600 514.400 C 201.160 514.083,200.800 513.575,200.800 513.272 C 200.800 512.969,200.260 512.217,199.600 511.600 C 198.940 510.983,198.400 510.101,198.400 509.640 C 198.400 509.101,198.144 508.800,197.688 508.800 C 197.297 508.800,196.717 508.440,196.400 508.000 C 196.083 507.560,195.593 507.200,195.312 507.200 C 195.030 507.200,194.800 507.020,194.800 506.800 C 194.800 506.580,194.480 506.400,194.088 506.400 C 193.697 506.400,193.117 506.040,192.800 505.600 C 192.483 505.160,191.985 504.800,191.694 504.800 C 191.007 504.800,189.200 502.993,189.200 502.306 C 189.200 502.015,188.840 501.517,188.400 501.200 C 187.960 500.883,187.600 500.253,187.600 499.800 C 187.600 499.347,187.240 498.717,186.800 498.400 C 186.360 498.083,186.000 497.503,186.000 497.112 C 186.000 496.720,185.802 496.400,185.560 496.400 C 185.319 496.400,184.617 495.860,184.000 495.200 C 183.383 494.540,182.631 494.000,182.328 494.000 C 182.025 494.000,181.517 493.640,181.200 493.200 C 180.883 492.760,180.387 492.400,180.098 492.400 C 179.479 492.400,176.800 489.812,176.800 489.213 C 176.800 488.986,176.620 488.800,176.400 488.800 C 176.180 488.800,176.000 488.440,176.000 488.000 C 176.000 487.560,175.807 487.200,175.571 487.200 C 175.014 487.200,174.000 486.181,174.000 485.621 C 174.000 484.952,168.896 480.000,168.207 480.000 C 167.873 480.000,167.600 479.807,167.600 479.571 C 167.600 478.929,166.545 478.000,165.815 478.000 C 165.045 478.000,162.400 475.445,162.400 474.702 C 162.400 474.413,162.040 473.917,161.600 473.600 C 161.160 473.283,160.800 472.775,160.800 472.472 C 160.800 472.169,160.260 471.417,159.600 470.800 C 158.940 470.183,158.400 469.565,158.400 469.426 C 158.400 468.848,155.570 466.400,154.902 466.400 C 154.503 466.400,153.917 466.040,153.600 465.600 C 153.283 465.160,152.787 464.800,152.498 464.800 C 151.816 464.800,149.200 462.184,149.200 461.502 C 149.200 461.213,148.840 460.717,148.400 460.400 C 147.960 460.083,147.600 459.453,147.600 459.000 C 147.600 458.547,147.240 457.917,146.800 457.600 C 146.360 457.283,146.000 456.703,146.000 456.312 C 146.000 455.920,145.802 455.600,145.560 455.600 C 145.319 455.600,144.617 455.060,144.000 454.400 C 143.383 453.740,142.631 453.200,142.328 453.200 C 142.025 453.200,141.517 452.840,141.200 452.400 C 140.883 451.960,140.387 451.600,140.098 451.600 C 139.479 451.600,136.800 449.012,136.800 448.413 C 136.800 448.186,136.620 448.000,136.400 448.000 C 136.180 448.000,136.000 447.640,136.000 447.200 C 136.000 446.760,135.807 446.400,135.571 446.400 C 135.014 446.400,134.000 445.381,134.000 444.820 C 134.000 444.250,129.750 440.000,129.180 440.000 C 128.619 440.000,127.600 438.986,127.600 438.429 C 127.600 438.193,127.240 438.000,126.800 438.000 C 126.360 438.000,126.000 437.820,126.000 437.600 C 126.000 437.380,125.814 437.200,125.587 437.200 C 124.988 437.200,122.400 434.521,122.400 433.902 C 122.400 433.613,122.040 433.117,121.600 432.800 C 121.160 432.483,120.800 431.975,120.800 431.672 C 120.800 431.369,120.260 430.617,119.600 430.000 C 118.940 429.383,118.400 428.763,118.400 428.621 C 118.400 428.056,116.391 426.400,115.706 426.400 C 115.305 426.400,114.717 426.040,114.400 425.600 C 114.083 425.160,113.587 424.800,113.298 424.800 C 112.616 424.800,110.000 422.184,110.000 421.502 C 110.000 421.213,109.640 420.717,109.200 420.400 C 108.760 420.083,108.400 419.453,108.400 419.000 C 108.400 418.547,108.040 417.917,107.600 417.600 C 107.160 417.283,106.800 416.780,106.800 416.483 C 106.800 415.883,105.846 414.800,105.317 414.800 C 105.130 414.800,104.717 414.440,104.400 414.000 C 104.083 413.560,103.543 413.200,103.200 413.200 C 102.857 413.200,102.317 412.840,102.000 412.400 C 101.683 411.960,101.187 411.600,100.898 411.600 C 100.331 411.600,97.600 409.035,97.600 408.502 C 97.600 408.323,97.240 407.917,96.800 407.600 C 96.360 407.283,96.000 406.703,96.000 406.312 C 96.000 405.920,95.730 405.600,95.400 405.600 C 95.070 405.600,94.800 405.327,94.800 404.993 C 94.800 404.201,89.799 399.200,89.007 399.200 C 88.673 399.200,88.400 398.930,88.400 398.600 C 88.400 398.270,88.080 398.000,87.688 398.000 C 87.297 398.000,86.717 397.640,86.400 397.200 C 86.083 396.760,85.677 396.400,85.498 396.400 C 84.920 396.400,82.400 393.646,82.400 393.013 C 82.400 392.676,82.220 392.400,82.000 392.400 C 81.780 392.400,81.600 392.112,81.600 391.760 C 81.600 391.409,81.060 390.617,80.400 390.000 C 79.740 389.383,79.200 388.765,79.200 388.626 C 79.200 388.082,76.390 385.600,75.774 385.600 C 75.415 385.600,74.617 385.060,74.000 384.400 C 73.383 383.740,72.668 383.200,72.411 383.200 C 71.740 383.200,70.800 382.166,70.800 381.429 C 70.800 381.083,70.620 380.800,70.400 380.800 C 70.149 380.800,70.000 378.197,70.000 373.791 L 70.000 366.783 72.191 364.591 C 73.397 363.386,74.660 362.400,75.000 362.400 C 75.626 362.400,80.000 358.286,80.000 357.697 C 80.000 357.521,80.360 357.117,80.800 356.800 C 81.240 356.483,81.600 355.903,81.600 355.512 C 81.600 355.120,81.780 354.800,82.000 354.800 C 82.220 354.800,82.400 354.524,82.400 354.187 C 82.400 353.554,84.920 350.800,85.498 350.800 C 85.677 350.800,86.083 350.440,86.400 350.000 C 86.717 349.560,87.297 349.200,87.688 349.200 C 88.080 349.200,88.400 349.020,88.400 348.800 C 88.400 348.580,88.760 348.400,89.200 348.400 C 89.640 348.400,90.000 348.210,90.000 347.978 C 90.000 347.746,91.080 346.496,92.400 345.200 C 93.720 343.904,94.800 342.564,94.800 342.222 C 94.800 341.880,95.070 341.600,95.400 341.600 C 95.730 341.600,96.000 341.312,96.000 340.960 C 96.000 340.609,96.540 339.817,97.200 339.200 C 97.860 338.583,98.400 337.963,98.400 337.821 C 98.400 337.345,100.358 335.600,100.894 335.600 C 101.185 335.600,101.683 335.240,102.000 334.800 C 102.317 334.360,102.857 334.000,103.200 334.000 C 103.543 334.000,104.083 333.640,104.400 333.200 C 104.717 332.760,105.130 332.400,105.317 332.400 C 105.846 332.400,106.800 331.317,106.800 330.717 C 106.800 330.420,107.160 329.917,107.600 329.600 C 108.040 329.283,108.400 328.653,108.400 328.200 C 108.400 327.747,108.760 327.117,109.200 326.800 C 109.640 326.483,110.000 325.985,110.000 325.694 C 110.000 325.007,111.807 323.200,112.494 323.200 C 112.785 323.200,113.283 322.840,113.600 322.400 C 113.917 321.960,114.502 321.600,114.899 321.600 C 115.604 321.600,119.200 318.338,119.200 317.699 C 119.200 317.522,119.560 317.117,120.000 316.800 C 120.440 316.483,120.800 315.943,120.800 315.600 C 120.800 315.257,121.160 314.717,121.600 314.400 C 122.040 314.083,122.400 313.587,122.400 313.298 C 122.400 312.679,124.988 310.000,125.587 310.000 C 125.814 310.000,126.000 309.820,126.000 309.600 C 126.000 309.380,126.283 309.200,126.629 309.200 C 127.347 309.200,128.400 308.266,128.400 307.629 C 128.400 307.393,128.674 307.200,129.009 307.200 C 129.701 307.200,134.000 303.048,134.000 302.380 C 134.000 301.819,135.014 300.800,135.571 300.800 C 135.807 300.800,136.000 300.480,136.000 300.088 C 136.000 299.697,136.360 299.117,136.800 298.800 C 137.240 298.483,137.600 298.075,137.600 297.894 C 137.600 297.362,139.515 295.600,140.094 295.600 C 140.385 295.600,140.883 295.240,141.200 294.800 C 141.517 294.360,142.025 294.000,142.328 294.000 C 142.631 294.000,143.383 293.460,144.000 292.800 C 144.617 292.140,145.242 291.600,145.389 291.600 C 145.859 291.600,146.800 290.477,146.800 289.917 C 146.800 289.620,147.160 289.117,147.600 288.800 C 148.040 288.483,148.400 287.813,148.400 287.312 C 148.400 286.810,148.580 286.400,148.800 286.400 C 149.020 286.400,149.200 286.124,149.200 285.787 C 149.200 285.038,151.769 282.400,152.498 282.400 C 152.787 282.400,153.283 282.040,153.600 281.600 C 153.917 281.160,154.502 280.800,154.899 280.800 C 155.604 280.800,159.200 277.538,159.200 276.899 C 159.200 276.722,159.560 276.317,160.000 276.000 C 160.440 275.683,160.800 275.143,160.800 274.800 C 160.800 274.457,161.160 273.917,161.600 273.600 C 162.040 273.283,162.400 272.787,162.400 272.498 C 162.400 271.713,165.065 269.200,165.898 269.200 C 166.297 269.200,166.883 268.840,167.200 268.400 C 167.517 267.960,168.097 267.600,168.488 267.600 C 168.880 267.600,169.200 267.410,169.200 267.178 C 169.200 266.946,170.280 265.696,171.600 264.400 C 172.920 263.104,174.000 261.841,174.000 261.594 C 174.000 261.022,175.008 260.000,175.571 260.000 C 175.807 260.000,176.000 259.680,176.000 259.288 C 176.000 258.897,176.360 258.317,176.800 258.000 C 177.240 257.683,177.600 257.275,177.600 257.094 C 177.600 256.562,179.515 254.800,180.094 254.800 C 180.385 254.800,180.883 254.440,181.200 254.000 C 181.517 253.560,182.025 253.200,182.328 253.200 C 182.631 253.200,183.383 252.660,184.000 252.000 C 184.617 251.340,185.242 250.800,185.389 250.800 C 185.891 250.800,186.800 249.659,186.800 249.029 C 186.800 248.683,186.980 248.400,187.200 248.400 C 187.420 248.400,187.600 248.022,187.600 247.560 C 187.600 247.099,188.140 246.217,188.800 245.600 C 189.460 244.983,190.000 244.268,190.000 244.011 C 190.000 243.375,191.019 242.400,191.683 242.400 C 191.980 242.400,192.483 242.040,192.800 241.600 C 193.117 241.160,193.697 240.800,194.088 240.800 C 194.480 240.800,194.800 240.620,194.800 240.400 C 194.800 240.180,195.030 240.000,195.312 240.000 C 195.593 240.000,196.083 239.640,196.400 239.200 C 196.717 238.760,197.297 238.400,197.688 238.400 C 198.144 238.400,198.400 238.099,198.400 237.560 C 198.400 237.099,198.940 236.217,199.600 235.600 C 200.260 234.983,200.800 234.231,200.800 233.928 C 200.800 233.625,201.160 233.117,201.600 232.800 C 202.040 232.483,202.400 231.985,202.400 231.694 C 202.400 230.912,204.249 229.200,205.094 229.200 C 205.495 229.200,206.083 228.840,206.400 228.400 C 206.717 227.960,207.297 227.600,207.688 227.600 C 208.080 227.600,208.400 227.412,208.400 227.182 C 208.400 226.540,210.286 224.800,210.982 224.800 C 211.322 224.800,211.600 224.512,211.600 224.160 C 211.600 223.809,212.140 223.017,212.800 222.400 C 213.460 221.783,214.000 221.068,214.000 220.811 C 214.000 220.225,215.000 219.200,215.571 219.200 C 215.807 219.200,216.000 218.840,216.000 218.400 C 216.000 217.960,216.180 217.600,216.400 217.600 C 216.620 217.600,216.800 217.412,216.800 217.182 C 216.800 216.582,218.665 214.800,219.294 214.800 C 219.585 214.800,220.083 214.440,220.400 214.000 C 220.717 213.560,221.221 213.200,221.520 213.200 C 221.818 213.200,222.754 212.480,223.600 211.600 C 224.446 210.720,225.331 210.000,225.569 210.000 C 225.806 210.000,226.000 209.680,226.000 209.288 C 226.000 208.897,226.360 208.317,226.800 208.000 C 227.240 207.683,227.600 207.100,227.600 206.704 C 227.600 205.885,232.513 200.800,233.304 200.800 C 233.590 200.800,234.083 200.440,234.400 200.000 C 234.717 199.560,235.305 199.200,235.706 199.200 C 236.489 199.200,238.400 197.510,238.400 196.818 C 238.400 196.588,238.580 196.400,238.800 196.400 C 239.020 196.400,239.200 196.080,239.200 195.688 C 239.200 195.297,239.560 194.717,240.000 194.400 C 240.440 194.083,240.800 193.589,240.800 193.303 C 240.800 192.691,244.993 188.400,245.591 188.400 C 245.816 188.400,246.000 188.220,246.000 188.000 C 246.000 187.780,246.283 187.600,246.629 187.600 C 247.347 187.600,248.400 186.666,248.400 186.029 C 248.400 185.793,248.678 185.600,249.018 185.600 C 249.774 185.600,251.600 183.837,251.600 183.106 C 251.600 182.815,251.960 182.317,252.400 182.000 C 252.840 181.683,253.200 181.143,253.200 180.800 C 253.200 180.457,253.560 179.917,254.000 179.600 C 254.440 179.283,254.800 178.703,254.800 178.312 C 254.800 177.920,254.993 177.600,255.229 177.600 C 255.689 177.600,256.800 176.617,256.800 176.210 C 256.800 175.742,258.765 174.000,259.294 174.000 C 259.585 174.000,260.083 173.640,260.400 173.200 C 260.717 172.760,261.221 172.400,261.520 172.400 C 261.818 172.400,262.754 171.680,263.600 170.800 C 264.446 169.920,265.331 169.200,265.569 169.200 C 265.806 169.200,266.000 168.880,266.000 168.488 C 266.000 168.097,266.360 167.517,266.800 167.200 C 267.240 166.883,267.600 166.299,267.600 165.903 C 267.600 165.081,271.713 160.800,272.503 160.800 C 272.789 160.800,273.283 160.440,273.600 160.000 C 273.917 159.560,274.503 159.200,274.902 159.200 C 275.670 159.200,278.400 156.713,278.400 156.013 C 278.400 155.786,278.580 155.600,278.800 155.600 C 279.020 155.600,279.200 155.280,279.200 154.888 C 279.200 154.497,279.560 153.917,280.000 153.600 C 280.440 153.283,280.800 152.789,280.800 152.503 C 280.800 151.759,285.058 147.600,285.820 147.600 C 286.545 147.600,287.600 146.669,287.600 146.029 C 287.600 145.793,287.876 145.600,288.213 145.600 C 288.962 145.600,291.600 143.031,291.600 142.302 C 291.600 142.013,291.960 141.517,292.400 141.200 C 292.840 140.883,293.200 140.343,293.200 140.000 C 293.200 139.657,293.560 139.117,294.000 138.800 C 294.440 138.483,294.800 137.903,294.800 137.512 C 294.800 137.120,295.070 136.800,295.400 136.800 C 295.730 136.800,296.000 136.612,296.000 136.382 C 296.000 135.782,297.865 134.000,298.494 134.000 C 298.785 134.000,299.283 133.640,299.600 133.200 C 299.917 132.760,300.419 132.400,300.714 132.400 C 301.010 132.400,302.129 131.500,303.200 130.400 C 304.271 129.300,305.340 128.400,305.574 128.400 C 305.808 128.400,306.000 128.040,306.000 127.600 C 306.000 127.160,306.180 126.800,306.400 126.800 C 306.620 126.800,306.800 126.437,306.800 125.993 C 306.800 125.052,311.683 120.000,312.593 120.000 C 312.927 120.000,313.200 119.820,313.200 119.600 C 313.200 119.380,313.560 119.200,314.000 119.200 C 314.440 119.200,314.800 119.020,314.800 118.800 C 314.800 118.580,314.988 118.400,315.218 118.400 C 315.713 118.400,317.600 116.583,317.600 116.106 C 317.600 115.925,317.960 115.517,318.400 115.200 C 318.840 114.883,319.200 114.303,319.200 113.912 C 319.200 113.520,319.380 113.200,319.600 113.200 C 319.820 113.200,320.000 112.927,320.000 112.593 C 320.000 111.683,325.052 106.800,325.993 106.800 C 326.437 106.800,326.800 106.607,326.800 106.371 C 326.800 105.812,327.820 104.800,328.385 104.800 C 329.051 104.800,331.600 102.115,331.600 101.413 C 331.600 101.076,331.780 100.800,332.000 100.800 C 332.220 100.800,332.400 100.512,332.400 100.160 C 332.400 99.809,332.940 99.017,333.600 98.400 C 334.260 97.783,334.800 96.901,334.800 96.440 C 334.800 95.978,335.030 95.600,335.312 95.600 C 335.593 95.600,336.083 95.240,336.400 94.800 C 336.717 94.360,337.225 94.000,337.528 94.000 C 337.831 94.000,338.583 93.460,339.200 92.800 C 339.817 92.140,340.523 91.600,340.771 91.600 C 341.446 91.600,344.800 88.113,344.800 87.411 C 344.800 87.075,344.993 86.800,345.229 86.800 C 345.869 86.800,346.800 85.745,346.800 85.020 C 346.800 84.258,350.959 80.000,351.703 80.000 C 351.989 80.000,352.483 79.640,352.800 79.200 C 353.117 78.760,353.697 78.400,354.088 78.400 C 354.480 78.400,354.800 78.220,354.800 78.000 C 354.800 77.780,354.988 77.600,355.218 77.600 C 355.761 77.600,357.600 75.761,357.600 75.218 C 357.600 74.988,357.780 74.800,358.000 74.800 C 358.220 74.800,358.400 74.480,358.400 74.088 C 358.400 73.697,358.760 73.117,359.200 72.800 C 359.640 72.483,360.000 71.990,360.000 71.704 C 360.000 70.859,365.105 66.000,365.993 66.000 C 366.437 66.000,366.800 65.807,366.800 65.571 C 366.800 65.005,367.823 64.000,368.400 64.000 C 368.995 64.000,370.000 62.988,370.000 62.389 C 370.000 62.132,370.540 61.417,371.200 60.800 C 371.860 60.183,372.400 59.391,372.400 59.040 C 372.400 58.688,372.580 58.400,372.800 58.400 C 373.020 58.400,373.200 58.080,373.200 57.688 C 373.200 57.297,373.560 56.717,374.000 56.400 C 374.440 56.083,374.800 55.593,374.800 55.312 C 374.800 55.030,374.982 54.800,375.205 54.800 C 375.855 54.800,383.200 47.271,383.200 46.605 C 383.200 46.272,383.380 46.000,383.600 46.000 C 383.820 46.000,384.000 45.370,384.000 44.600 C 384.000 43.830,384.180 43.200,384.400 43.200 C 384.620 43.200,384.800 42.300,384.800 41.200 C 384.800 39.689,384.947 39.200,385.400 39.200 C 385.861 39.200,386.000 38.689,386.000 37.000 C 386.000 35.790,386.180 34.800,386.400 34.800 C 386.620 34.800,386.800 34.440,386.800 34.000 C 386.800 33.560,386.620 33.200,386.400 33.200 C 386.180 33.200,386.000 32.660,386.000 32.000 C 386.000 31.200,385.800 30.800,385.400 30.800 C 385.067 30.800,384.800 30.444,384.800 30.000 C 384.800 29.560,384.620 29.200,384.400 29.200 C 384.180 29.200,384.000 28.840,384.000 28.400 C 384.000 27.960,383.820 27.600,383.600 27.600 C 383.380 27.600,383.200 27.240,383.200 26.800 C 383.200 26.360,383.020 26.000,382.800 26.000 C 382.580 26.000,382.400 25.817,382.400 25.594 C 382.400 25.065,375.735 18.400,375.206 18.400 C 374.983 18.400,374.800 18.220,374.800 18.000 C 374.800 17.780,374.440 17.600,374.000 17.600 C 373.560 17.600,373.200 17.420,373.200 17.200 C 373.200 16.980,372.840 16.800,372.400 16.800 C 371.960 16.800,371.600 16.620,371.600 16.400 C 371.600 16.180,371.240 16.000,370.800 16.000 C 370.356 16.000,370.000 15.733,370.000 15.400 C 370.000 15.000,369.600 14.800,368.800 14.800 C 368.140 14.800,367.600 14.620,367.600 14.400 C 367.600 14.180,367.240 14.000,366.800 14.000 C 366.360 14.000,366.000 14.180,366.000 14.400 " stroke="none" fill="#0a0a0a" fill-rule="evenodd"></path><path id="path1" d="M0.000 373.200 L 0.000 746.400 200.000 746.400 L 400.000 746.400 400.000 373.200 L 400.000 0.000 200.000 0.000 L 0.000 0.000 0.000 373.200 M367.600 14.400 C 367.600 14.620,368.140 14.800,368.800 14.800 C 369.600 14.800,370.000 15.000,370.000 15.400 C 370.000 15.733,370.356 16.000,370.800 16.000 C 371.240 16.000,371.600 16.180,371.600 16.400 C 371.600 16.620,371.960 16.800,372.400 16.800 C 372.840 16.800,373.200 16.980,373.200 17.200 C 373.200 17.420,373.560 17.600,374.000 17.600 C 374.440 17.600,374.800 17.780,374.800 18.000 C 374.800 18.220,374.983 18.400,375.206 18.400 C 375.735 18.400,382.400 25.065,382.400 25.594 C 382.400 25.817,382.580 26.000,382.800 26.000 C 383.020 26.000,383.200 26.360,383.200 26.800 C 383.200 27.240,383.380 27.600,383.600 27.600 C 383.820 27.600,384.000 27.960,384.000 28.400 C 384.000 28.840,384.180 29.200,384.400 29.200 C 384.620 29.200,384.800 29.560,384.800 30.000 C 384.800 30.444,385.067 30.800,385.400 30.800 C 385.800 30.800,386.000 31.200,386.000 32.000 C 386.000 32.660,386.180 33.200,386.400 33.200 C 386.620 33.200,386.800 33.560,386.800 34.000 C 386.800 34.440,386.620 34.800,386.400 34.800 C 386.180 34.800,386.000 35.790,386.000 37.000 C 386.000 38.689,385.861 39.200,385.400 39.200 C 384.947 39.200,384.800 39.689,384.800 41.200 C 384.800 42.300,384.620 43.200,384.400 43.200 C 384.180 43.200,384.000 43.830,384.000 44.600 C 384.000 45.370,383.820 46.000,383.600 46.000 C 383.380 46.000,383.200 46.272,383.200 46.605 C 383.200 47.271,375.855 54.800,375.205 54.800 C 374.982 54.800,374.800 55.030,374.800 55.312 C 374.800 55.593,374.440 56.083,374.000 56.400 C 373.560 56.717,373.200 57.297,373.200 57.688 C 373.200 58.080,373.020 58.400,372.800 58.400 C 372.580 58.400,372.400 58.688,372.400 59.040 C 372.400 59.391,371.860 60.183,371.200 60.800 C 370.540 61.417,370.000 62.132,370.000 62.389 C 370.000 62.988,368.995 64.000,368.400 64.000 C 367.823 64.000,366.800 65.005,366.800 65.571 C 366.800 65.807,366.437 66.000,365.993 66.000 C 365.105 66.000,360.000 70.859,360.000 71.704 C 360.000 71.990,359.640 72.483,359.200 72.800 C 358.760 73.117,358.400 73.697,358.400 74.088 C 358.400 74.480,358.220 74.800,358.000 74.800 C 357.780 74.800,357.600 74.988,357.600 75.218 C 357.600 75.761,355.761 77.600,355.218 77.600 C 354.988 77.600,354.800 77.780,354.800 78.000 C 354.800 78.220,354.480 78.400,354.088 78.400 C 353.697 78.400,353.117 78.760,352.800 79.200 C 352.483 79.640,351.989 80.000,351.703 80.000 C 350.959 80.000,346.800 84.258,346.800 85.020 C 346.800 85.745,345.869 86.800,345.229 86.800 C 344.993 86.800,344.800 87.075,344.800 87.411 C 344.800 88.113,341.446 91.600,340.771 91.600 C 340.523 91.600,339.817 92.140,339.200 92.800 C 338.583 93.460,337.831 94.000,337.528 94.000 C 337.225 94.000,336.717 94.360,336.400 94.800 C 336.083 95.240,335.593 95.600,335.312 95.600 C 335.030 95.600,334.800 95.978,334.800 96.440 C 334.800 96.901,334.260 97.783,333.600 98.400 C 332.940 99.017,332.400 99.809,332.400 100.160 C 332.400 100.512,332.220 100.800,332.000 100.800 C 331.780 100.800,331.600 101.076,331.600 101.413 C 331.600 102.115,329.051 104.800,328.385 104.800 C 327.820 104.800,326.800 105.812,326.800 106.371 C 326.800 106.607,326.437 106.800,325.993 106.800 C 325.052 106.800,320.000 111.683,320.000 112.593 C 320.000 112.927,319.820 113.200,319.600 113.200 C 319.380 113.200,319.200 113.520,319.200 113.912 C 319.200 114.303,318.840 114.883,318.400 115.200 C 317.960 115.517,317.600 115.925,317.600 116.106 C 317.600 116.583,315.713 118.400,315.218 118.400 C 314.988 118.400,314.800 118.580,314.800 118.800 C 314.800 119.020,314.440 119.200,314.000 119.200 C 313.560 119.200,313.200 119.380,313.200 119.600 C 313.200 119.820,312.927 120.000,312.593 120.000 C 311.683 120.000,306.800 125.052,306.800 125.993 C 306.800 126.437,306.620 126.800,306.400 126.800 C 306.180 126.800,306.000 127.160,306.000 127.600 C 306.000 128.040,305.808 128.400,305.574 128.400 C 305.340 128.400,304.271 129.300,303.200 130.400 C 302.129 131.500,301.010 132.400,300.714 132.400 C 300.419 132.400,299.917 132.760,299.600 133.200 C 299.283 133.640,298.785 134.000,298.494 134.000 C 297.865 134.000,296.000 135.782,296.000 136.382 C 296.000 136.612,295.730 136.800,295.400 136.800 C 295.070 136.800,294.800 137.120,294.800 137.512 C 294.800 137.903,294.440 138.483,294.000 138.800 C 293.560 139.117,293.200 139.657,293.200 140.000 C 293.200 140.343,292.840 140.883,292.400 141.200 C 291.960 141.517,291.600 142.013,291.600 142.302 C 291.600 143.031,288.962 145.600,288.213 145.600 C 287.876 145.600,287.600 145.793,287.600 146.029 C 287.600 146.669,286.545 147.600,285.820 147.600 C 285.058 147.600,280.800 151.759,280.800 152.503 C 280.800 152.789,280.440 153.283,280.000 153.600 C 279.560 153.917,279.200 154.497,279.200 154.888 C 279.200 155.280,279.020 155.600,278.800 155.600 C 278.580 155.600,278.400 155.786,278.400 156.013 C 278.400 156.713,275.670 159.200,274.902 159.200 C 274.503 159.200,273.917 159.560,273.600 160.000 C 273.283 160.440,272.789 160.800,272.503 160.800 C 271.713 160.800,267.600 165.081,267.600 165.903 C 267.600 166.299,267.240 166.883,266.800 167.200 C 266.360 167.517,266.000 168.097,266.000 168.488 C 266.000 168.880,265.806 169.200,265.569 169.200 C 265.331 169.200,264.446 169.920,263.600 170.800 C 262.754 171.680,261.818 172.400,261.520 172.400 C 261.221 172.400,260.717 172.760,260.400 173.200 C 260.083 173.640,259.585 174.000,259.294 174.000 C 258.765 174.000,256.800 175.742,256.800 176.210 C 256.800 176.617,255.689 177.600,255.229 177.600 C 254.993 177.600,254.800 177.920,254.800 178.312 C 254.800 178.703,254.440 179.283,254.000 179.600 C 253.560 179.917,253.200 180.457,253.200 180.800 C 253.200 181.143,252.840 181.683,252.400 182.000 C 251.960 182.317,251.600 182.815,251.600 183.106 C 251.600 183.837,249.774 185.600,249.018 185.600 C 248.678 185.600,248.400 185.793,248.400 186.029 C 248.400 186.666,247.347 187.600,246.629 187.600 C 246.283 187.600,246.000 187.780,246.000 188.000 C 246.000 188.220,245.816 188.400,245.591 188.400 C 244.993 188.400,240.800 192.691,240.800 193.303 C 240.800 193.589,240.440 194.083,240.000 194.400 C 239.560 194.717,239.200 195.297,239.200 195.688 C 239.200 196.080,239.020 196.400,238.800 196.400 C 238.580 196.400,238.400 196.588,238.400 196.818 C 238.400 197.510,236.489 199.200,235.706 199.200 C 235.305 199.200,234.717 199.560,234.400 200.000 C 234.083 200.440,233.590 200.800,233.304 200.800 C 232.513 200.800,227.600 205.885,227.600 206.704 C 227.600 207.100,227.240 207.683,226.800 208.000 C 226.360 208.317,226.000 208.897,226.000 209.288 C 226.000 209.680,225.806 210.000,225.569 210.000 C 225.331 210.000,224.446 210.720,223.600 211.600 C 222.754 212.480,221.818 213.200,221.520 213.200 C 221.221 213.200,220.717 213.560,220.400 214.000 C 220.083 214.440,219.585 214.800,219.294 214.800 C 218.665 214.800,216.800 216.582,216.800 217.182 C 216.800 217.412,216.620 217.600,216.400 217.600 C 216.180 217.600,216.000 217.960,216.000 218.400 C 216.000 218.840,215.807 219.200,215.571 219.200 C 215.000 219.200,214.000 220.225,214.000 220.811 C 214.000 221.068,213.460 221.783,212.800 222.400 C 212.140 223.017,211.600 223.809,211.600 224.160 C 211.600 224.512,211.322 224.800,210.982 224.800 C 210.286 224.800,208.400 226.540,208.400 227.182 C 208.400 227.412,208.080 227.600,207.688 227.600 C 207.297 227.600,206.717 227.960,206.400 228.400 C 206.083 228.840,205.495 229.200,205.094 229.200 C 204.249 229.200,202.400 230.912,202.400 231.694 C 202.400 231.985,202.040 232.483,201.600 232.800 C 201.160 233.117,200.800 233.625,200.800 233.928 C 200.800 234.231,200.260 234.983,199.600 235.600 C 198.940 236.217,198.400 237.099,198.400 237.560 C 198.400 238.099,198.144 238.400,197.688 238.400 C 197.297 238.400,196.717 238.760,196.400 239.200 C 196.083 239.640,195.593 240.000,195.312 240.000 C 195.030 240.000,194.800 240.180,194.800 240.400 C 194.800 240.620,194.480 240.800,194.088 240.800 C 193.697 240.800,193.117 241.160,192.800 241.600 C 192.483 242.040,191.980 242.400,191.683 242.400 C 191.019 242.400,190.000 243.375,190.000 244.011 C 190.000 244.268,189.460 244.983,188.800 245.600 C 188.140 246.217,187.600 247.099,187.600 247.560 C 187.600 248.022,187.420 248.400,187.200 248.400 C 186.980 248.400,186.800 248.683,186.800 249.029 C 186.800 249.659,185.891 250.800,185.389 250.800 C 185.242 250.800,184.617 251.340,184.000 252.000 C 183.383 252.660,182.631 253.200,182.328 253.200 C 182.025 253.200,181.517 253.560,181.200 254.000 C 180.883 254.440,180.385 254.800,180.094 254.800 C 179.515 254.800,177.600 256.562,177.600 257.094 C 177.600 257.275,177.240 257.683,176.800 258.000 C 176.360 258.317,176.000 258.897,176.000 259.288 C 176.000 259.680,175.807 260.000,175.571 260.000 C 175.008 260.000,174.000 261.022,174.000 261.594 C 174.000 261.841,172.920 263.104,171.600 264.400 C 170.280 265.696,169.200 266.946,169.200 267.178 C 169.200 267.410,168.880 267.600,168.488 267.600 C 168.097 267.600,167.517 267.960,167.200 268.400 C 166.883 268.840,166.297 269.200,165.898 269.200 C 165.065 269.200,162.400 271.713,162.400 272.498 C 162.400 272.787,162.040 273.283,161.600 273.600 C 161.160 273.917,160.800 274.457,160.800 274.800 C 160.800 275.143,160.440 275.683,160.000 276.000 C 159.560 276.317,159.200 276.722,159.200 276.899 C 159.200 277.538,155.604 280.800,154.899 280.800 C 154.502 280.800,153.917 281.160,153.600 281.600 C 153.283 282.040,152.787 282.400,152.498 282.400 C 151.769 282.400,149.200 285.038,149.200 285.787 C 149.200 286.124,149.020 286.400,148.800 286.400 C 148.580 286.400,148.400 286.810,148.400 287.312 C 148.400 287.813,148.040 288.483,147.600 288.800 C 147.160 289.117,146.800 289.620,146.800 289.917 C 146.800 290.477,145.859 291.600,145.389 291.600 C 145.242 291.600,144.617 292.140,144.000 292.800 C 143.383 293.460,142.631 294.000,142.328 294.000 C 142.025 294.000,141.517 294.360,141.200 294.800 C 140.883 295.240,140.385 295.600,140.094 295.600 C 139.515 295.600,137.600 297.362,137.600 297.894 C 137.600 298.075,137.240 298.483,136.800 298.800 C 136.360 299.117,136.000 299.697,136.000 300.088 C 136.000 300.480,135.807 300.800,135.571 300.800 C 135.014 300.800,134.000 301.819,134.000 302.380 C 134.000 303.048,129.701 307.200,129.009 307.200 C 128.674 307.200,128.400 307.393,128.400 307.629 C 128.400 308.266,127.347 309.200,126.629 309.200 C 126.283 309.200,126.000 309.380,126.000 309.600 C 126.000 309.820,125.814 310.000,125.587 310.000 C 124.988 310.000,122.400 312.679,122.400 313.298 C 122.400 313.587,122.040 314.083,121.600 314.400 C 121.160 314.717,120.800 315.257,120.800 315.600 C 120.800 315.943,120.440 316.483,120.000 316.800 C 119.560 317.117,119.200 317.522,119.200 317.699 C 119.200 318.338,115.604 321.600,114.899 321.600 C 114.502 321.600,113.917 321.960,113.600 322.400 C 113.283 322.840,112.785 323.200,112.494 323.200 C 111.807 323.200,110.000 325.007,110.000 325.694 C 110.000 325.985,109.640 326.483,109.200 326.800 C 108.760 327.117,108.400 327.747,108.400 328.200 C 108.400 328.653,108.040 329.283,107.600 329.600 C 107.160 329.917,106.800 330.420,106.800 330.717 C 106.800 331.317,105.846 332.400,105.317 332.400 C 105.130 332.400,104.717 332.760,104.400 333.200 C 104.083 333.640,103.543 334.000,103.200 334.000 C 102.857 334.000,102.317 334.360,102.000 334.800 C 101.683 335.240,101.185 335.600,100.894 335.600 C 100.358 335.600,98.400 337.345,98.400 337.821 C 98.400 337.963,97.860 338.583,97.200 339.200 C 96.540 339.817,96.000 340.609,96.000 340.960 C 96.000 341.312,95.730 341.600,95.400 341.600 C 95.070 341.600,94.800 341.880,94.800 342.222 C 94.800 342.564,93.720 343.904,92.400 345.200 C 91.080 346.496,90.000 347.746,90.000 347.978 C 90.000 348.210,89.640 348.400,89.200 348.400 C 88.760 348.400,88.400 348.580,88.400 348.800 C 88.400 349.020,88.080 349.200,87.688 349.200 C 87.297 349.200,86.717 349.560,86.400 350.000 C 86.083 350.440,85.677 350.800,85.498 350.800 C 84.920 350.800,82.400 353.554,82.400 354.187 C 82.400 354.524,82.220 354.800,82.000 354.800 C 81.780 354.800,81.600 355.120,81.600 355.512 C 81.600 355.903,81.240 356.483,80.800 356.800 C 80.360 357.117,80.000 357.521,80.000 357.697 C 80.000 358.286,75.626 362.400,75.000 362.400 C 74.660 362.400,73.397 363.386,72.191 364.591 L 70.000 366.783 70.000 373.791 C 70.000 378.197,70.149 380.800,70.400 380.800 C 70.620 380.800,70.800 381.083,70.800 381.429 C 70.800 382.166,71.740 383.200,72.411 383.200 C 72.668 383.200,73.383 383.740,74.000 384.400 C 74.617 385.060,75.415 385.600,75.774 385.600 C 76.390 385.600,79.200 388.082,79.200 388.626 C 79.200 388.765,79.740 389.383,80.400 390.000 C 81.060 390.617,81.600 391.409,81.600 391.760 C 81.600 392.112,81.780 392.400,82.000 392.400 C 82.220 392.400,82.400 392.676,82.400 393.013 C 82.400 393.646,84.920 396.400,85.498 396.400 C 85.677 396.400,86.083 396.760,86.400 397.200 C 86.717 397.640,87.297 398.000,87.688 398.000 C 88.080 398.000,88.400 398.270,88.400 398.600 C 88.400 398.930,88.673 399.200,89.007 399.200 C 89.799 399.200,94.800 404.201,94.800 404.993 C 94.800 405.327,95.070 405.600,95.400 405.600 C 95.730 405.600,96.000 405.920,96.000 406.312 C 96.000 406.703,96.360 407.283,96.800 407.600 C 97.240 407.917,97.600 408.323,97.600 408.502 C 97.600 409.035,100.331 411.600,100.898 411.600 C 101.187 411.600,101.683 411.960,102.000 412.400 C 102.317 412.840,102.857 413.200,103.200 413.200 C 103.543 413.200,104.083 413.560,104.400 414.000 C 104.717 414.440,105.130 414.800,105.317 414.800 C 105.846 414.800,106.800 415.883,106.800 416.483 C 106.800 416.780,107.160 417.283,107.600 417.600 C 108.040 417.917,108.400 418.547,108.400 419.000 C 108.400 419.453,108.760 420.083,109.200 420.400 C 109.640 420.717,110.000 421.213,110.000 421.502 C 110.000 422.184,112.616 424.800,113.298 424.800 C 113.587 424.800,114.083 425.160,114.400 425.600 C 114.717 426.040,115.305 426.400,115.706 426.400 C 116.391 426.400,118.400 428.056,118.400 428.621 C 118.400 428.763,118.940 429.383,119.600 430.000 C 120.260 430.617,120.800 431.369,120.800 431.672 C 120.800 431.975,121.160 432.483,121.600 432.800 C 122.040 433.117,122.400 433.613,122.400 433.902 C 122.400 434.521,124.988 437.200,125.587 437.200 C 125.814 437.200,126.000 437.380,126.000 437.600 C 126.000 437.820,126.360 438.000,126.800 438.000 C 127.240 438.000,127.600 438.193,127.600 438.429 C 127.600 438.986,128.619 440.000,129.180 440.000 C 129.750 440.000,134.000 444.250,134.000 444.820 C 134.000 445.381,135.014 446.400,135.571 446.400 C 135.807 446.400,136.000 446.760,136.000 447.200 C 136.000 447.640,136.180 448.000,136.400 448.000 C 136.620 448.000,136.800 448.186,136.800 448.413 C 136.800 449.012,139.479 451.600,140.098 451.600 C 140.387 451.600,140.883 451.960,141.200 452.400 C 141.517 452.840,142.025 453.200,142.328 453.200 C 142.631 453.200,143.383 453.740,144.000 454.400 C 144.617 455.060,145.319 455.600,145.560 455.600 C 145.802 455.600,146.000 455.920,146.000 456.312 C 146.000 456.703,146.360 457.283,146.800 457.600 C 147.240 457.917,147.600 458.547,147.600 459.000 C 147.600 459.453,147.960 460.083,148.400 460.400 C 148.840 460.717,149.200 461.213,149.200 461.502 C 149.200 462.184,151.816 464.800,152.498 464.800 C 152.787 464.800,153.283 465.160,153.600 465.600 C 153.917 466.040,154.503 466.400,154.902 466.400 C 155.570 466.400,158.400 468.848,158.400 469.426 C 158.400 469.565,158.940 470.183,159.600 470.800 C 160.260 471.417,160.800 472.169,160.800 472.472 C 160.800 472.775,161.160 473.283,161.600 473.600 C 162.040 473.917,162.400 474.413,162.400 474.702 C 162.400 475.445,165.045 478.000,165.815 478.000 C 166.545 478.000,167.600 478.929,167.600 479.571 C 167.600 479.807,167.873 480.000,168.207 480.000 C 168.896 480.000,174.000 484.952,174.000 485.621 C 174.000 486.181,175.014 487.200,175.571 487.200 C 175.807 487.200,176.000 487.560,176.000 488.000 C 176.000 488.440,176.180 488.800,176.400 488.800 C 176.620 488.800,176.800 488.986,176.800 489.213 C 176.800 489.812,179.479 492.400,180.098 492.400 C 180.387 492.400,180.883 492.760,181.200 493.200 C 181.517 493.640,182.025 494.000,182.328 494.000 C 182.631 494.000,183.383 494.540,184.000 495.200 C 184.617 495.860,185.319 496.400,185.560 496.400 C 185.802 496.400,186.000 496.720,186.000 497.112 C 186.000 497.503,186.360 498.083,186.800 498.400 C 187.240 498.717,187.600 499.347,187.600 499.800 C 187.600 500.253,187.960 500.883,188.400 501.200 C 188.840 501.517,189.200 502.015,189.200 502.306 C 189.200 502.993,191.007 504.800,191.694 504.800 C 191.985 504.800,192.483 505.160,192.800 505.600 C 193.117 506.040,193.697 506.400,194.088 506.400 C 194.480 506.400,194.800 506.580,194.800 506.800 C 194.800 507.020,195.030 507.200,195.312 507.200 C 195.593 507.200,196.083 507.560,196.400 508.000 C 196.717 508.440,197.297 508.800,197.688 508.800 C 198.144 508.800,198.400 509.101,198.400 509.640 C 198.400 510.101,198.940 510.983,199.600 511.600 C 200.260 512.217,200.800 512.969,200.800 513.272 C 200.800 513.575,201.160 514.083,201.600 514.400 C 202.040 514.717,202.400 515.215,202.400 515.506 C 202.400 516.250,204.232 518.000,205.010 518.000 C 205.744 518.000,206.800 518.927,206.800 519.571 C 206.800 519.807,207.073 520.000,207.406 520.000 C 207.740 520.000,209.360 521.347,211.006 522.994 C 212.653 524.640,214.000 526.260,214.000 526.594 C 214.000 526.927,214.180 527.200,214.400 527.200 C 214.620 527.200,214.800 527.560,214.800 528.000 C 214.800 528.444,215.067 528.800,215.400 528.800 C 215.730 528.800,216.000 528.986,216.000 529.213 C 216.000 529.812,218.679 532.400,219.298 532.400 C 219.587 532.400,220.083 532.760,220.400 533.200 C 220.717 533.640,221.221 534.000,221.520 534.000 C 221.818 534.000,222.754 534.720,223.600 535.600 C 224.446 536.480,225.331 537.200,225.569 537.200 C 225.806 537.200,226.000 537.560,226.000 538.000 C 226.000 538.440,226.180 538.800,226.400 538.800 C 226.620 538.800,226.800 539.070,226.800 539.400 C 226.800 539.730,226.980 540.000,227.200 540.000 C 227.420 540.000,227.600 540.273,227.600 540.607 C 227.600 541.347,232.576 546.400,233.304 546.400 C 233.590 546.400,234.083 546.760,234.400 547.200 C 234.717 547.640,235.310 548.000,235.717 548.000 C 236.480 548.000,237.600 548.882,237.600 549.483 C 237.600 549.670,237.960 550.083,238.400 550.400 C 238.840 550.717,239.200 551.257,239.200 551.600 C 239.200 551.943,239.560 552.483,240.000 552.800 C 240.440 553.117,240.800 553.611,240.800 553.897 C 240.800 554.509,244.993 558.800,245.591 558.800 C 245.816 558.800,246.000 558.980,246.000 559.200 C 246.000 559.420,246.360 559.600,246.800 559.600 C 247.240 559.600,247.600 559.793,247.600 560.029 C 247.600 560.591,248.621 561.600,249.190 561.600 C 249.812 561.600,251.600 563.450,251.600 564.094 C 251.600 564.385,251.960 564.883,252.400 565.200 C 252.840 565.517,253.200 566.057,253.200 566.400 C 253.200 566.743,253.560 567.283,254.000 567.600 C 254.440 567.917,254.800 568.497,254.800 568.888 C 254.800 569.280,255.070 569.600,255.400 569.600 C 255.730 569.600,256.000 569.786,256.000 570.013 C 256.000 570.612,258.679 573.200,259.298 573.200 C 259.587 573.200,260.083 573.560,260.400 574.000 C 260.717 574.440,261.221 574.800,261.520 574.800 C 261.818 574.800,262.754 575.520,263.600 576.400 C 264.446 577.280,265.331 578.000,265.569 578.000 C 265.806 578.000,266.000 578.360,266.000 578.800 C 266.000 579.240,266.180 579.600,266.400 579.600 C 266.620 579.600,266.800 579.870,266.800 580.200 C 266.800 580.530,266.980 580.800,267.200 580.800 C 267.420 580.800,267.600 581.074,267.600 581.409 C 267.600 582.150,271.775 586.400,272.503 586.400 C 272.789 586.400,273.283 586.760,273.600 587.200 C 273.917 587.640,274.505 588.000,274.906 588.000 C 275.637 588.000,277.600 589.672,277.600 590.294 C 277.600 590.475,277.960 590.883,278.400 591.200 C 278.840 591.517,279.200 592.057,279.200 592.400 C 279.200 592.743,279.560 593.283,280.000 593.600 C 280.440 593.917,280.800 594.411,280.800 594.697 C 280.800 595.309,284.993 599.600,285.591 599.600 C 285.816 599.600,286.000 599.870,286.000 600.200 C 286.000 600.530,286.320 600.800,286.712 600.800 C 287.103 600.800,287.683 601.160,288.000 601.600 C 288.317 602.040,288.815 602.400,289.106 602.400 C 289.793 602.400,291.600 604.207,291.600 604.894 C 291.600 605.185,291.960 605.683,292.400 606.000 C 292.840 606.317,293.200 606.857,293.200 607.200 C 293.200 607.543,293.560 608.083,294.000 608.400 C 294.440 608.717,294.800 609.387,294.800 609.888 C 294.800 610.390,294.998 610.800,295.240 610.800 C 295.481 610.800,296.183 611.340,296.800 612.000 C 297.417 612.660,298.169 613.200,298.472 613.200 C 298.775 613.200,299.283 613.560,299.600 614.000 C 299.917 614.440,300.419 614.800,300.714 614.800 C 301.010 614.800,302.129 615.700,303.200 616.800 C 304.271 617.900,305.340 618.800,305.574 618.800 C 305.808 618.800,306.000 619.250,306.000 619.800 C 306.000 620.350,306.180 620.800,306.400 620.800 C 306.620 620.800,306.800 621.073,306.800 621.407 C 306.800 622.199,311.801 627.200,312.593 627.200 C 312.927 627.200,313.200 627.380,313.200 627.600 C 313.200 627.820,313.560 628.000,314.000 628.000 C 314.440 628.000,314.800 628.180,314.800 628.400 C 314.800 628.620,314.993 628.800,315.229 628.800 C 315.701 628.800,316.800 629.787,316.800 630.211 C 316.800 630.358,317.340 630.983,318.000 631.600 C 318.660 632.217,319.200 633.009,319.200 633.360 C 319.200 633.712,319.380 634.000,319.600 634.000 C 319.820 634.000,320.000 634.280,320.000 634.622 C 320.000 634.964,321.080 636.304,322.400 637.600 C 323.720 638.896,324.800 640.146,324.800 640.378 C 324.800 640.610,325.178 640.800,325.640 640.800 C 326.101 640.800,326.983 641.340,327.600 642.000 C 328.217 642.660,328.932 643.200,329.189 643.200 C 329.825 643.200,330.800 644.219,330.800 644.883 C 330.800 645.180,331.160 645.683,331.600 646.000 C 332.040 646.317,332.400 646.825,332.400 647.128 C 332.400 647.431,332.940 648.183,333.600 648.800 C 334.260 649.417,334.800 650.299,334.800 650.760 C 334.800 651.222,335.030 651.600,335.312 651.600 C 335.593 651.600,336.083 651.960,336.400 652.400 C 336.717 652.840,337.225 653.200,337.528 653.200 C 337.831 653.200,338.583 653.740,339.200 654.400 C 339.817 655.060,340.523 655.600,340.771 655.600 C 341.446 655.600,344.800 659.087,344.800 659.789 C 344.800 660.125,345.070 660.400,345.400 660.400 C 345.730 660.400,346.000 660.670,346.000 661.000 C 346.000 661.330,346.180 661.600,346.400 661.600 C 346.620 661.600,346.800 661.874,346.800 662.209 C 346.800 662.950,350.975 667.200,351.703 667.200 C 351.989 667.200,352.483 667.560,352.800 668.000 C 353.117 668.440,353.697 668.800,354.088 668.800 C 354.480 668.800,354.800 668.980,354.800 669.200 C 354.800 669.420,354.993 669.600,355.229 669.600 C 355.739 669.600,356.800 670.601,356.800 671.083 C 356.800 671.270,357.160 671.683,357.600 672.000 C 358.040 672.317,358.400 672.857,358.400 673.200 C 358.400 673.543,358.760 674.083,359.200 674.400 C 359.640 674.717,360.000 675.217,360.000 675.510 C 360.000 675.804,361.080 677.104,362.400 678.400 C 363.720 679.696,364.800 680.946,364.800 681.178 C 364.800 681.410,365.163 681.600,365.607 681.600 C 366.495 681.600,371.600 686.459,371.600 687.304 C 371.600 687.590,371.960 688.083,372.400 688.400 C 372.840 688.717,373.200 689.297,373.200 689.688 C 373.200 690.080,373.380 690.400,373.600 690.400 C 373.820 690.400,374.000 690.593,374.000 690.829 C 374.000 691.281,374.980 692.400,375.377 692.400 C 376.036 692.400,383.200 700.087,383.200 700.795 C 383.200 701.238,383.380 701.600,383.600 701.600 C 383.820 701.600,384.000 702.140,384.000 702.800 C 384.000 703.460,384.180 704.000,384.400 704.000 C 384.620 704.000,384.800 704.900,384.800 706.000 C 384.800 707.511,384.947 708.000,385.400 708.000 C 385.861 708.000,386.000 708.511,386.000 710.200 C 386.000 711.410,386.180 712.400,386.400 712.400 C 386.620 712.400,386.800 712.760,386.800 713.200 C 386.800 713.640,386.620 714.000,386.400 714.000 C 386.180 714.000,386.000 714.540,386.000 715.200 C 386.000 716.000,385.800 716.400,385.400 716.400 C 385.067 716.400,384.800 716.756,384.800 717.200 C 384.800 717.640,384.620 718.000,384.400 718.000 C 384.180 718.000,384.000 718.360,384.000 718.800 C 384.000 719.240,383.820 719.600,383.600 719.600 C 383.380 719.600,383.200 719.962,383.200 720.405 C 383.200 721.224,375.985 728.800,375.205 728.800 C 374.982 728.800,374.800 728.980,374.800 729.200 C 374.800 729.420,374.440 729.600,374.000 729.600 C 373.560 729.600,373.200 729.780,373.200 730.000 C 373.200 730.220,372.840 730.400,372.400 730.400 C 371.956 730.400,371.600 730.667,371.600 731.000 C 371.600 731.333,371.244 731.600,370.800 731.600 C 370.360 731.600,370.000 731.780,370.000 732.000 C 370.000 732.220,369.460 732.400,368.800 732.400 C 368.140 732.400,367.600 732.580,367.600 732.800 C 367.600 733.020,367.240 733.200,366.800 733.200 C 366.360 733.200,366.000 733.020,366.000 732.800 C 366.000 732.580,365.190 732.400,364.200 732.400 C 363.210 732.400,362.400 732.220,362.400 732.000 C 362.400 731.780,361.680 731.600,360.800 731.600 C 359.644 731.600,359.200 731.433,359.200 731.000 C 359.200 730.600,358.800 730.400,358.000 730.400 C 357.340 730.400,356.800 730.220,356.800 730.000 C 356.800 729.780,356.258 729.600,355.595 729.600 C 354.404 729.600,346.000 721.897,346.000 720.805 C 346.000 720.582,345.770 720.400,345.488 720.400 C 345.207 720.400,344.717 720.040,344.400 719.600 C 344.083 719.160,343.543 718.800,343.200 718.800 C 342.857 718.800,342.317 718.440,342.000 718.000 C 341.683 717.560,341.188 717.200,340.901 717.200 C 340.269 717.200,336.800 713.801,336.800 713.182 C 336.800 712.620,335.787 711.600,335.229 711.600 C 334.993 711.600,334.800 711.238,334.800 710.795 C 334.800 709.851,327.526 702.400,326.605 702.400 C 326.272 702.400,326.000 702.220,326.000 702.000 C 326.000 701.780,325.730 701.600,325.400 701.600 C 325.064 701.600,324.800 701.243,324.800 700.787 C 324.800 700.285,323.121 698.305,320.400 695.600 C 317.980 693.194,316.000 691.040,316.000 690.813 C 316.000 690.586,315.770 690.400,315.488 690.400 C 315.207 690.400,314.717 690.040,314.400 689.600 C 314.083 689.160,313.580 688.800,313.283 688.800 C 312.627 688.800,311.600 687.827,311.600 687.206 C 311.600 686.959,310.520 685.696,309.200 684.400 C 307.880 683.104,306.800 681.751,306.800 681.394 C 306.800 680.564,305.845 679.600,305.024 679.600 C 304.080 679.600,296.000 671.366,296.000 670.405 C 296.000 669.962,295.818 669.600,295.595 669.600 C 295.175 669.600,286.800 661.388,286.800 660.976 C 286.800 660.673,285.727 659.600,285.424 659.600 C 285.013 659.600,276.000 650.423,276.000 650.004 C 276.000 649.782,275.817 649.600,275.594 649.600 C 274.997 649.600,268.400 642.900,268.400 642.294 C 268.400 642.009,268.040 641.517,267.600 641.200 C 267.160 640.883,266.800 640.470,266.800 640.283 C 266.800 639.899,265.781 638.800,265.424 638.800 C 265.119 638.800,256.800 630.481,256.800 630.176 C 256.800 629.872,255.726 628.800,255.421 628.800 C 254.986 628.800,250.000 623.620,250.000 623.168 C 250.000 622.922,249.460 622.217,248.800 621.600 C 248.140 620.983,247.600 620.363,247.600 620.221 C 247.600 619.846,245.694 618.000,245.306 618.000 C 245.125 618.000,244.717 617.640,244.400 617.200 C 244.083 616.760,243.590 616.400,243.304 616.400 C 242.566 616.400,237.600 611.341,237.600 610.589 C 237.600 610.005,235.907 608.000,235.413 608.000 C 235.121 608.000,227.600 600.479,227.600 600.187 C 227.600 599.889,225.700 598.000,225.400 598.000 C 224.989 598.000,223.200 596.056,223.200 595.609 C 223.200 594.949,218.894 590.800,218.209 590.800 C 217.874 590.800,217.600 590.612,217.600 590.382 C 217.600 589.947,215.808 588.000,215.408 588.000 C 214.985 588.000,211.600 584.426,211.600 583.979 C 211.600 583.736,210.880 582.846,210.000 582.000 C 209.120 581.154,208.400 580.353,208.400 580.218 C 208.400 579.852,205.677 577.200,205.302 577.200 C 205.123 577.200,204.717 576.840,204.400 576.400 C 204.083 575.960,203.589 575.600,203.303 575.600 C 202.567 575.600,198.400 571.346,198.400 570.595 C 198.400 570.024,195.911 567.200,195.408 567.200 C 195.121 567.200,188.400 560.479,188.400 560.192 C 188.400 559.796,185.636 557.200,185.213 557.200 C 184.986 557.200,184.800 556.912,184.800 556.560 C 184.800 556.209,184.260 555.417,183.600 554.800 C 182.940 554.183,182.400 553.473,182.400 553.221 C 182.400 552.633,180.575 550.800,179.990 550.800 C 179.421 550.800,178.400 549.791,178.400 549.229 C 178.400 548.993,178.080 548.800,177.688 548.800 C 177.297 548.800,176.717 548.440,176.400 548.000 C 176.083 547.560,175.677 547.200,175.498 547.200 C 175.003 547.200,172.400 544.489,172.400 543.974 C 172.400 543.725,171.860 543.017,171.200 542.400 C 170.540 541.783,170.000 540.991,170.000 540.640 C 170.000 540.288,169.820 540.000,169.600 540.000 C 169.380 540.000,169.200 539.812,169.200 539.582 C 169.200 538.940,167.314 537.200,166.618 537.200 C 166.278 537.200,166.000 537.020,166.000 536.800 C 166.000 536.580,165.770 536.400,165.488 536.400 C 165.207 536.400,164.717 536.040,164.400 535.600 C 164.083 535.160,163.588 534.800,163.301 534.800 C 162.573 534.800,159.200 531.355,159.200 530.611 C 159.200 530.275,159.020 530.000,158.800 530.000 C 158.580 530.000,158.400 529.770,158.400 529.488 C 158.400 529.207,158.040 528.717,157.600 528.400 C 157.160 528.083,156.800 527.580,156.800 527.283 C 156.800 526.683,155.846 525.600,155.317 525.600 C 155.130 525.600,154.717 525.240,154.400 524.800 C 154.083 524.360,153.589 524.000,153.303 524.000 C 152.791 524.000,148.400 519.853,148.400 519.369 C 148.400 519.233,147.860 518.617,147.200 518.000 C 146.540 517.383,146.000 516.591,146.000 516.240 C 146.000 515.888,145.807 515.600,145.571 515.600 C 145.013 515.600,144.000 514.580,144.000 514.018 C 144.000 513.351,140.506 510.000,139.811 510.000 C 139.475 510.000,139.200 509.807,139.200 509.571 C 139.200 508.969,138.162 508.000,137.517 508.000 C 137.220 508.000,136.717 507.640,136.400 507.200 C 136.083 506.760,135.677 506.400,135.498 506.400 C 134.965 506.400,132.400 503.669,132.400 503.102 C 132.400 502.813,132.040 502.317,131.600 502.000 C 131.160 501.683,130.800 501.103,130.800 500.712 C 130.800 500.320,130.620 500.000,130.400 500.000 C 130.180 500.000,130.000 499.814,130.000 499.587 C 130.000 498.942,127.299 496.400,126.613 496.400 C 126.276 496.400,126.000 496.220,126.000 496.000 C 126.000 495.780,125.730 495.600,125.400 495.600 C 125.070 495.600,124.800 495.420,124.800 495.200 C 124.800 494.980,124.525 494.800,124.189 494.800 C 123.396 494.800,120.000 491.404,120.000 490.611 C 120.000 490.275,119.820 490.000,119.600 490.000 C 119.380 490.000,119.200 489.770,119.200 489.488 C 119.200 489.207,118.840 488.717,118.400 488.400 C 117.960 488.083,117.600 487.585,117.600 487.294 C 117.600 486.758,115.855 484.800,115.379 484.800 C 115.237 484.800,114.617 484.260,114.000 483.600 C 113.383 482.940,112.675 482.400,112.426 482.400 C 111.960 482.400,109.200 479.818,109.200 479.382 C 109.200 479.247,108.480 478.446,107.600 477.600 C 106.720 476.754,106.000 475.779,106.000 475.431 C 106.000 475.084,105.730 474.800,105.400 474.800 C 105.070 474.800,104.800 474.518,104.800 474.174 C 104.800 473.830,103.900 472.671,102.800 471.600 C 101.700 470.529,100.800 469.460,100.800 469.226 C 100.800 468.992,100.440 468.800,100.000 468.800 C 99.560 468.800,99.200 468.620,99.200 468.400 C 99.200 468.180,98.912 468.000,98.560 468.000 C 98.209 468.000,97.417 467.460,96.800 466.800 C 96.183 466.140,95.565 465.600,95.426 465.600 C 94.901 465.600,92.400 462.801,92.400 462.213 C 92.400 461.876,92.220 461.600,92.000 461.600 C 91.780 461.600,91.600 461.280,91.600 460.888 C 91.600 460.497,91.240 459.917,90.800 459.600 C 90.360 459.283,90.000 458.877,90.000 458.698 C 90.000 458.120,87.246 455.600,86.613 455.600 C 86.276 455.600,86.000 455.420,86.000 455.200 C 86.000 454.980,85.730 454.800,85.400 454.800 C 85.070 454.800,84.800 454.620,84.800 454.400 C 84.800 454.180,84.525 454.000,84.189 454.000 C 83.396 454.000,80.000 450.604,80.000 449.811 C 80.000 449.475,79.820 449.200,79.600 449.200 C 79.380 449.200,79.200 448.930,79.200 448.600 C 79.200 448.270,79.020 448.000,78.800 448.000 C 78.580 448.000,78.400 447.724,78.400 447.387 C 78.400 446.799,75.899 444.000,75.374 444.000 C 75.235 444.000,74.617 443.460,74.000 442.800 C 73.383 442.140,72.675 441.600,72.426 441.600 C 71.955 441.600,69.200 439.016,69.200 438.574 C 69.200 438.435,68.660 437.817,68.000 437.200 C 67.340 436.583,66.800 435.868,66.800 435.611 C 66.800 435.025,65.800 434.000,65.229 434.000 C 64.993 434.000,64.800 433.725,64.800 433.389 C 64.800 432.596,61.404 429.200,60.611 429.200 C 60.275 429.200,60.000 429.007,60.000 428.771 C 60.000 428.200,58.975 427.200,58.389 427.200 C 58.132 427.200,57.417 426.660,56.800 426.000 C 56.183 425.340,55.563 424.800,55.421 424.800 C 54.945 424.800,53.200 422.842,53.200 422.306 C 53.200 422.015,52.840 421.517,52.400 421.200 C 51.960 420.883,51.600 420.303,51.600 419.912 C 51.600 419.520,51.420 419.200,51.200 419.200 C 50.980 419.200,50.800 419.014,50.800 418.787 C 50.800 418.188,48.121 415.600,47.502 415.600 C 47.213 415.600,46.717 415.240,46.400 414.800 C 46.083 414.360,45.498 414.000,45.101 414.000 C 44.224 414.000,40.800 410.665,40.800 409.811 C 40.800 409.475,40.620 409.200,40.400 409.200 C 40.180 409.200,40.000 408.930,40.000 408.600 C 40.000 408.270,39.820 408.000,39.600 408.000 C 39.380 408.000,39.200 407.712,39.200 407.360 C 39.200 407.009,38.660 406.217,38.000 405.600 C 37.340 404.983,36.800 404.191,36.800 403.840 C 36.800 403.457,36.463 403.200,35.960 403.200 C 35.499 403.200,34.617 402.660,34.000 402.000 C 33.383 401.340,32.673 400.800,32.421 400.800 C 31.945 400.800,30.000 399.023,30.000 398.587 C 30.000 398.450,29.280 397.646,28.400 396.800 C 27.520 395.954,26.800 394.979,26.800 394.631 C 26.800 394.284,26.620 394.000,26.400 394.000 C 26.180 394.000,26.000 393.640,26.000 393.200 C 26.000 392.760,25.812 392.400,25.582 392.400 C 24.940 392.400,23.200 390.514,23.200 389.818 C 23.200 389.478,23.020 389.200,22.800 389.200 C 22.580 389.200,22.400 389.007,22.400 388.771 C 22.400 388.213,21.380 387.200,20.818 387.200 C 20.151 387.200,16.800 383.706,16.800 383.011 C 16.800 382.675,16.620 382.400,16.400 382.400 C 16.180 382.400,16.000 382.040,16.000 381.600 C 16.000 381.156,15.733 380.800,15.400 380.800 C 14.889 380.800,14.800 379.733,14.800 373.600 C 14.800 367.467,14.889 366.400,15.400 366.400 C 15.730 366.400,16.000 366.080,16.000 365.688 C 16.000 365.297,16.360 364.717,16.800 364.400 C 17.240 364.083,17.600 363.587,17.600 363.298 C 17.600 362.668,20.192 360.000,20.805 360.000 C 21.358 360.000,23.200 358.168,23.200 357.618 C 23.200 357.388,23.380 357.200,23.600 357.200 C 23.820 357.200,24.000 356.917,24.000 356.571 C 24.000 355.853,24.934 354.800,25.571 354.800 C 25.807 354.800,26.000 354.440,26.000 354.000 C 26.000 353.560,26.180 353.200,26.400 353.200 C 26.620 353.200,26.800 352.918,26.800 352.574 C 26.800 352.230,27.700 351.071,28.800 350.000 C 29.900 348.929,30.800 347.937,30.800 347.797 C 30.800 347.339,31.931 346.400,32.483 346.400 C 32.780 346.400,33.283 346.040,33.600 345.600 C 33.917 345.160,34.503 344.800,34.902 344.800 C 35.735 344.800,38.400 342.287,38.400 341.502 C 38.400 341.213,38.760 340.717,39.200 340.400 C 39.640 340.083,40.000 339.503,40.000 339.112 C 40.000 338.720,40.180 338.400,40.400 338.400 C 40.620 338.400,40.800 338.130,40.800 337.800 C 40.800 337.470,40.980 337.200,41.200 337.200 C 41.420 337.200,41.600 336.922,41.600 336.582 C 41.600 335.782,43.382 334.000,44.182 334.000 C 44.522 334.000,44.800 333.820,44.800 333.600 C 44.800 333.380,45.070 333.200,45.400 333.200 C 45.730 333.200,46.000 333.020,46.000 332.800 C 46.000 332.580,46.274 332.400,46.609 332.400 C 47.463 332.400,51.600 328.171,51.600 327.297 C 51.600 326.901,51.960 326.317,52.400 326.000 C 52.840 325.683,53.200 325.185,53.200 324.894 C 53.200 324.358,54.945 322.400,55.421 322.400 C 55.563 322.400,56.183 321.860,56.800 321.200 C 57.417 320.540,58.169 320.000,58.472 320.000 C 58.775 320.000,59.283 319.640,59.600 319.200 C 59.917 318.760,60.497 318.400,60.888 318.400 C 61.280 318.400,61.600 318.206,61.600 317.969 C 61.600 317.731,62.320 316.846,63.200 316.000 C 64.080 315.154,64.800 314.179,64.800 313.831 C 64.800 313.484,64.993 313.200,65.229 313.200 C 65.797 313.200,66.800 312.177,66.800 311.597 C 66.800 311.344,67.520 310.446,68.400 309.600 C 69.280 308.754,70.000 307.946,70.000 307.803 C 70.000 307.340,71.128 306.400,71.683 306.400 C 71.980 306.400,72.483 306.040,72.800 305.600 C 73.117 305.160,73.697 304.800,74.088 304.800 C 74.480 304.800,74.800 304.620,74.800 304.400 C 74.800 304.180,74.986 304.000,75.213 304.000 C 75.858 304.000,78.400 301.299,78.400 300.613 C 78.400 300.276,78.580 300.000,78.800 300.000 C 79.020 300.000,79.200 299.640,79.200 299.200 C 79.200 298.760,79.380 298.400,79.600 298.400 C 79.820 298.400,80.000 298.170,80.000 297.888 C 80.000 297.607,80.360 297.117,80.800 296.800 C 81.240 296.483,81.600 295.980,81.600 295.683 C 81.600 294.987,82.587 294.000,83.283 294.000 C 83.580 294.000,84.083 293.640,84.400 293.200 C 84.717 292.760,85.207 292.400,85.488 292.400 C 85.770 292.400,86.000 292.220,86.000 292.000 C 86.000 291.780,86.275 291.600,86.611 291.600 C 87.289 291.600,90.800 288.257,90.800 287.611 C 90.800 287.385,90.980 287.200,91.200 287.200 C 91.420 287.200,91.600 286.840,91.600 286.400 C 91.600 285.960,91.780 285.600,92.000 285.600 C 92.220 285.600,92.400 285.324,92.400 284.987 C 92.400 284.399,94.901 281.600,95.426 281.600 C 95.565 281.600,96.183 281.060,96.800 280.400 C 97.417 279.740,98.209 279.200,98.560 279.200 C 98.912 279.200,99.200 279.020,99.200 278.800 C 99.200 278.580,99.483 278.400,99.829 278.400 C 100.454 278.400,101.600 277.493,101.600 276.997 C 101.600 276.854,102.320 276.046,103.200 275.200 C 104.080 274.354,104.800 273.379,104.800 273.031 C 104.800 272.684,105.070 272.400,105.400 272.400 C 105.730 272.400,106.000 272.118,106.000 271.774 C 106.000 271.430,106.900 270.271,108.000 269.200 C 109.100 268.129,110.000 267.137,110.000 266.997 C 110.000 266.506,111.149 265.600,111.771 265.600 C 112.117 265.600,112.400 265.420,112.400 265.200 C 112.400 264.980,112.720 264.800,113.112 264.800 C 113.503 264.800,114.083 264.440,114.400 264.000 C 114.717 263.560,115.125 263.200,115.306 263.200 C 115.838 263.200,117.600 261.285,117.600 260.706 C 117.600 260.415,117.960 259.917,118.400 259.600 C 118.840 259.283,119.200 258.703,119.200 258.312 C 119.200 257.920,119.380 257.600,119.600 257.600 C 119.820 257.600,120.000 257.370,120.000 257.088 C 120.000 256.807,120.360 256.317,120.800 256.000 C 121.240 255.683,121.600 255.180,121.600 254.883 C 121.600 254.586,121.857 254.086,122.171 253.771 C 122.486 253.457,122.986 253.200,123.283 253.200 C 123.580 253.200,124.083 252.840,124.400 252.400 C 124.717 251.960,125.207 251.600,125.488 251.600 C 125.770 251.600,126.000 251.420,126.000 251.200 C 126.000 250.980,126.275 250.800,126.611 250.800 C 127.465 250.800,130.800 247.376,130.800 246.499 C 130.800 246.102,131.160 245.517,131.600 245.200 C 132.040 244.883,132.400 244.387,132.400 244.098 C 132.400 243.531,134.965 240.800,135.498 240.800 C 135.677 240.800,136.083 240.440,136.400 240.000 C 136.717 239.560,137.257 239.200,137.600 239.200 C 137.943 239.200,138.483 238.840,138.800 238.400 C 139.117 237.960,139.697 237.600,140.088 237.600 C 140.480 237.600,140.800 237.406,140.800 237.169 C 140.800 236.931,141.520 236.046,142.400 235.200 C 143.280 234.354,144.000 233.456,144.000 233.203 C 144.000 232.623,145.003 231.600,145.571 231.600 C 145.807 231.600,146.000 231.316,146.000 230.969 C 146.000 230.621,146.720 229.646,147.600 228.800 C 148.480 227.954,149.200 227.150,149.200 227.013 C 149.200 226.543,151.163 224.800,151.694 224.800 C 151.985 224.800,152.483 224.440,152.800 224.000 C 153.117 223.560,153.697 223.200,154.088 223.200 C 154.480 223.200,154.800 223.020,154.800 222.800 C 154.800 222.580,154.993 222.400,155.229 222.400 C 155.831 222.400,156.800 221.362,156.800 220.717 C 156.800 220.420,157.160 219.917,157.600 219.600 C 158.040 219.283,158.400 218.703,158.400 218.312 C 158.400 217.920,158.580 217.600,158.800 217.600 C 159.020 217.600,159.200 217.417,159.200 217.194 C 159.200 216.663,165.063 210.800,165.594 210.800 C 165.817 210.800,166.000 210.620,166.000 210.400 C 166.000 210.180,166.276 210.000,166.613 210.000 C 167.430 210.000,170.000 207.400,170.000 206.574 C 170.000 206.215,170.540 205.417,171.200 204.800 C 171.860 204.183,172.400 203.475,172.400 203.226 C 172.400 202.659,175.027 200.000,175.587 200.000 C 175.814 200.000,176.000 199.820,176.000 199.600 C 176.000 199.380,176.278 199.200,176.618 199.200 C 177.314 199.200,179.200 197.460,179.200 196.818 C 179.200 196.588,179.476 196.400,179.813 196.400 C 180.562 196.400,183.200 193.831,183.200 193.102 C 183.200 192.813,183.560 192.317,184.000 192.000 C 184.440 191.683,184.800 191.103,184.800 190.712 C 184.800 190.320,184.985 190.000,185.211 190.000 C 185.632 190.000,189.200 186.599,189.200 186.197 C 189.200 185.776,191.973 183.200,192.426 183.200 C 192.675 183.200,193.383 182.660,194.000 182.000 C 194.617 181.340,195.242 180.800,195.389 180.800 C 195.830 180.800,196.800 179.692,196.800 179.189 C 196.800 178.932,197.340 178.217,198.000 177.600 C 198.660 176.983,199.200 176.368,199.200 176.233 C 199.200 175.930,205.103 170.000,205.404 170.000 C 205.707 170.000,209.200 166.477,209.200 166.171 C 209.200 166.033,209.740 165.417,210.400 164.800 C 211.060 164.183,211.600 163.477,211.600 163.229 C 211.600 162.666,215.032 159.200,215.589 159.200 C 215.815 159.200,216.000 159.020,216.000 158.800 C 216.000 158.580,216.278 158.400,216.618 158.400 C 217.206 158.400,219.200 156.700,219.200 156.199 C 219.200 156.068,220.460 154.719,222.000 153.200 C 223.540 151.681,224.800 150.160,224.800 149.819 C 224.800 149.479,224.986 149.200,225.213 149.200 C 225.636 149.200,228.400 146.604,228.400 146.208 C 228.400 146.087,229.927 144.461,231.794 142.594 C 233.661 140.727,235.287 139.200,235.408 139.200 C 235.693 139.200,238.400 136.493,238.400 136.208 C 238.400 136.087,239.927 134.461,241.794 132.594 C 243.661 130.727,245.287 129.200,245.408 129.200 C 245.713 129.200,248.400 126.483,248.400 126.174 C 248.400 126.035,248.940 125.417,249.600 124.800 C 250.260 124.183,250.800 123.477,250.800 123.231 C 250.800 122.670,255.035 118.400,255.591 118.400 C 255.816 118.400,256.000 118.220,256.000 118.000 C 256.000 117.780,256.283 117.600,256.629 117.600 C 257.249 117.600,258.400 116.694,258.400 116.206 C 258.400 116.069,259.480 114.896,260.800 113.600 C 262.120 112.304,263.200 111.046,263.200 110.804 C 263.200 110.348,264.983 108.400,265.400 108.400 C 265.720 108.400,267.600 106.502,267.600 106.179 C 267.600 106.037,268.140 105.417,268.800 104.800 C 269.460 104.183,270.000 103.478,270.000 103.232 C 270.000 102.780,274.986 97.600,275.421 97.600 C 275.726 97.600,276.800 96.528,276.800 96.224 C 276.800 95.926,285.116 87.600,285.414 87.600 C 285.704 87.600,287.600 85.704,287.600 85.413 C 287.600 85.121,295.121 77.600,295.413 77.600 C 295.704 77.600,297.600 75.704,297.600 75.413 C 297.600 75.121,305.121 67.600,305.413 67.600 C 305.809 67.600,307.600 65.650,307.600 65.218 C 307.600 64.988,307.780 64.800,308.000 64.800 C 308.220 64.800,308.400 64.516,308.400 64.169 C 308.400 63.821,309.120 62.846,310.000 62.000 C 310.880 61.154,311.600 60.256,311.600 60.003 C 311.600 59.374,312.623 58.400,313.283 58.400 C 313.580 58.400,314.083 58.040,314.400 57.600 C 314.717 57.160,315.130 56.800,315.317 56.800 C 315.706 56.800,316.800 55.779,316.800 55.415 C 316.800 55.281,318.600 53.385,320.800 51.200 C 323.000 49.015,324.800 46.952,324.800 46.614 C 324.800 46.276,325.070 46.000,325.400 46.000 C 325.730 46.000,326.000 45.730,326.000 45.400 C 326.000 45.070,326.276 44.800,326.614 44.800 C 326.952 44.800,329.015 43.000,331.200 40.800 C 333.385 38.600,335.281 36.800,335.415 36.800 C 335.899 36.800,336.800 35.642,336.800 35.020 C 336.800 34.306,340.937 30.000,341.623 30.000 C 341.865 30.000,342.754 29.280,343.600 28.400 C 344.446 27.520,345.254 26.800,345.397 26.800 C 345.815 26.800,346.800 25.696,346.800 25.229 C 346.800 24.993,347.160 24.800,347.600 24.800 C 348.049 24.800,348.400 24.533,348.400 24.193 C 348.400 23.401,353.401 18.400,354.193 18.400 C 354.527 18.400,354.800 18.220,354.800 18.000 C 354.800 17.780,355.250 17.600,355.800 17.600 C 356.350 17.600,356.800 17.420,356.800 17.200 C 356.800 16.980,357.340 16.800,358.000 16.800 C 358.660 16.800,359.200 16.620,359.200 16.400 C 359.200 16.180,359.920 16.000,360.800 16.000 C 361.956 16.000,362.400 15.833,362.400 15.400 C 362.400 14.956,362.867 14.800,364.200 14.800 C 365.190 14.800,366.000 14.620,366.000 14.400 C 366.000 14.180,366.360 14.000,366.800 14.000 C 367.240 14.000,367.600 14.180,367.600 14.400 " stroke="none" fill="#fcfcfc" fill-rule="evenodd"></path></g></svg>