<svg id="svg" version="1.1" xmlns="http://www.w3.org/2000/svg" xmlns:xlink="http://www.w3.org/1999/xlink" width="400" height="533.3333333333334" viewBox="0, 0, 400,533.3333333333334"><g id="svgg"><path id="path0" d="M167.150 10.839 C 157.156 11.479,151.371 12.775,143.243 16.197 C 140.469 17.364,135.500 19.252,132.200 20.391 C 125.599 22.670,125.243 22.852,117.922 27.663 C 115.128 29.498,111.602 31.762,110.085 32.693 C 108.568 33.623,105.899 35.693,104.154 37.293 C 102.410 38.892,99.802 41.152,98.358 42.315 C 96.915 43.479,94.740 45.639,93.524 47.115 C 92.309 48.592,89.893 51.356,88.157 53.259 C 86.421 55.161,84.110 58.221,83.021 60.059 C 81.933 61.896,79.754 65.290,78.178 67.600 C 74.484 73.018,73.682 74.643,71.261 81.622 C 70.159 84.800,68.332 89.559,67.202 92.198 C 62.856 102.342,62.200 107.015,62.200 127.800 C 62.200 147.979,62.926 153.088,67.209 163.050 C 68.332 165.663,70.155 170.403,71.260 173.584 C 73.682 180.554,74.115 181.431,77.794 186.800 C 79.377 189.110,81.556 192.512,82.636 194.360 C 83.716 196.208,86.311 199.718,88.402 202.160 C 90.494 204.602,93.011 207.590,93.996 208.800 C 94.981 210.010,97.330 212.620,99.216 214.600 C 105.017 220.689,109.532 227.559,109.582 230.374 C 109.631 233.080,103.741 239.700,91.230 251.000 C 77.575 263.334,65.493 275.864,60.890 282.466 C 59.502 284.457,57.467 287.192,56.368 288.543 C 55.269 289.894,53.091 293.520,51.527 296.600 C 49.964 299.680,47.822 303.550,46.768 305.200 C 43.962 309.593,42.657 312.662,40.630 319.640 C 39.632 323.072,37.918 328.323,36.819 331.308 C 31.993 344.424,30.967 352.873,31.314 376.621 C 31.602 396.256,32.507 402.283,36.943 414.101 C 38.148 417.311,39.881 422.569,40.795 425.784 C 42.714 432.533,43.771 435.087,46.195 438.835 C 47.154 440.317,49.307 444.232,50.980 447.535 C 53.039 451.600,55.096 454.940,57.345 457.870 C 59.172 460.252,61.494 463.460,62.504 465.000 C 63.515 466.540,66.515 470.134,69.171 472.986 C 71.827 475.839,74.000 478.289,74.000 478.432 C 74.000 478.575,75.395 479.837,77.100 481.237 C 78.805 482.636,81.640 485.148,83.400 486.818 C 85.160 488.488,88.490 491.130,90.800 492.688 C 93.110 494.246,96.440 496.624,98.200 497.973 C 99.960 499.322,103.830 501.651,106.800 503.150 C 109.770 504.648,113.518 506.730,115.129 507.775 C 119.308 510.487,122.214 511.705,129.439 513.772 C 132.937 514.773,137.924 516.400,140.521 517.389 C 153.476 522.321,162.436 523.414,187.274 523.092 C 207.757 522.827,212.781 522.083,225.536 517.423 C 228.816 516.225,234.087 514.509,237.250 513.609 C 243.618 511.797,247.474 510.125,252.052 507.190 C 253.731 506.114,257.162 504.229,259.676 503.001 C 262.191 501.773,265.498 499.794,267.024 498.602 C 268.551 497.410,271.653 495.152,273.919 493.585 C 276.184 492.017,279.064 489.866,280.319 488.804 C 291.882 479.020,299.999 471.865,305.987 466.179 C 308.084 464.188,311.382 461.238,313.315 459.624 C 315.248 458.009,317.228 456.188,317.715 455.575 C 318.202 454.963,319.950 453.347,321.600 451.983 C 323.250 450.620,326.425 447.771,328.655 445.652 C 336.581 438.123,341.749 433.362,344.996 430.600 C 346.806 429.060,348.894 427.099,349.636 426.243 C 350.377 425.386,353.015 422.994,355.499 420.927 C 357.982 418.859,360.229 416.823,360.492 416.402 C 360.755 415.980,362.317 414.502,363.964 413.118 C 373.176 405.368,382.571 395.533,386.932 389.070 C 391.852 381.780,392.927 362.900,389.033 352.173 C 386.399 344.917,375.876 333.759,368.312 330.203 C 358.597 325.635,338.620 325.827,329.245 330.577 C 326.928 331.751,315.840 340.283,311.897 343.926 C 310.303 345.398,307.200 348.157,305.000 350.058 C 302.800 351.958,300.280 354.273,299.400 355.203 C 298.520 356.132,296.720 357.788,295.400 358.882 C 294.080 359.977,291.470 362.357,289.600 364.173 C 287.730 365.988,285.030 368.428,283.600 369.596 C 281.098 371.639,276.721 375.655,267.657 384.225 C 265.316 386.438,261.920 389.477,260.111 390.977 C 258.303 392.478,256.556 394.113,256.231 394.609 C 255.905 395.106,253.965 396.914,251.919 398.627 C 249.874 400.340,246.469 403.374,244.353 405.371 C 235.341 413.872,231.446 417.315,227.737 420.058 C 225.572 421.659,222.512 423.988,220.938 425.233 C 216.189 428.991,209.147 432.056,196.400 435.916 C 189.716 437.939,179.873 438.428,173.810 437.037 C 165.337 435.093,150.260 429.378,147.161 426.934 C 139.568 420.948,135.852 417.706,134.547 415.927 C 133.696 414.768,131.485 411.925,129.632 409.610 C 125.483 404.422,124.363 402.039,121.080 391.400 C 115.890 374.587,116.036 369.364,122.231 350.142 C 125.694 339.397,133.313 328.973,145.338 318.526 C 147.792 316.394,151.512 313.018,153.604 311.025 C 164.749 300.404,167.269 298.628,171.200 298.628 C 176.528 298.627,178.520 300.069,189.377 311.789 C 202.154 325.581,203.344 326.639,212.287 332.157 C 223.598 339.137,238.842 340.093,249.329 334.482 C 262.000 327.702,266.287 323.335,272.619 310.763 C 277.957 300.163,277.144 287.708,270.334 275.750 C 265.495 267.254,264.284 265.731,250.198 250.440 C 243.403 243.063,241.710 239.850,242.094 235.067 C 242.463 230.464,242.948 229.856,255.554 218.200 C 262.113 212.135,266.451 207.593,273.051 199.877 C 274.180 198.558,276.143 195.751,277.414 193.640 C 278.684 191.528,280.752 188.360,282.009 186.600 C 284.880 182.579,286.335 179.669,288.008 174.600 C 288.734 172.400,290.464 167.837,291.854 164.460 C 296.723 152.628,297.241 149.481,297.492 130.200 C 297.756 109.990,296.812 102.480,292.812 92.966 C 291.059 88.796,288.785 82.770,286.939 77.400 C 286.175 75.180,284.773 72.608,282.359 69.000 C 280.445 66.140,277.849 62.115,276.589 60.056 C 275.329 57.997,272.926 54.847,271.249 53.055 C 269.572 51.264,267.248 48.614,266.085 47.166 C 264.921 45.719,262.761 43.540,261.285 42.324 C 259.808 41.109,257.041 38.689,255.136 36.948 C 253.130 35.115,249.846 32.696,247.336 31.202 C 244.951 29.783,241.380 27.518,239.400 26.168 C 234.668 22.944,233.600 22.429,227.124 20.259 C 224.112 19.250,219.322 17.445,216.481 16.249 C 204.276 11.111,189.035 9.439,167.150 10.839 M185.275 97.044 C 188.264 97.724,197.317 102.085,200.530 104.393 C 204.903 107.533,210.499 119.224,211.067 126.407 C 211.609 133.268,205.134 148.104,199.832 152.148 C 199.047 152.747,196.282 155.260,193.688 157.732 C 188.541 162.637,183.713 166.123,181.085 166.831 C 177.427 167.816,170.969 164.808,166.600 160.084 C 165.280 158.657,162.750 155.940,160.978 154.045 C 151.033 143.413,146.480 129.700,149.748 120.228 C 153.588 109.100,156.771 105.225,165.715 100.784 C 174.519 96.413,178.855 95.584,185.275 97.044 " stroke="none" fill="#ec4f10" fill-rule="evenodd"></path><path id="path1" d="M0.000 266.600 L 0.000 533.200 200.000 533.200 L 400.000 533.200 400.000 266.600 L 400.000 0.000 200.000 0.000 L 0.000 0.000 0.000 266.600 M191.197 10.808 C 202.696 11.508,207.857 12.618,216.481 16.249 C 219.322 17.445,224.112 19.250,227.124 20.259 C 233.600 22.429,234.668 22.944,239.400 26.168 C 241.380 27.518,244.951 29.783,247.336 31.202 C 249.846 32.696,253.130 35.115,255.136 36.948 C 257.041 38.689,259.808 41.109,261.285 42.324 C 262.761 43.540,264.921 45.719,266.085 47.166 C 267.248 48.614,269.572 51.264,271.249 53.055 C 272.926 54.847,275.329 57.997,276.589 60.056 C 277.849 62.115,280.445 66.140,282.359 69.000 C 284.773 72.608,286.175 75.180,286.939 77.400 C 288.785 82.770,291.059 88.796,292.812 92.966 C 296.812 102.480,297.756 109.990,297.492 130.200 C 297.241 149.481,296.723 152.628,291.854 164.460 C 290.464 167.837,288.734 172.400,288.008 174.600 C 286.335 179.669,284.880 182.579,282.009 186.600 C 280.752 188.360,278.684 191.528,277.414 193.640 C 276.143 195.751,274.180 198.558,273.051 199.877 C 266.451 207.593,262.113 212.135,255.554 218.200 C 242.948 229.856,242.463 230.464,242.094 235.067 C 241.710 239.850,243.403 243.063,250.198 250.440 C 264.284 265.731,265.495 267.254,270.334 275.750 C 277.144 287.708,277.957 300.163,272.619 310.763 C 266.287 323.335,262.000 327.702,249.329 334.482 C 238.842 340.093,223.598 339.137,212.287 332.157 C 203.344 326.639,202.154 325.581,189.377 311.789 C 178.520 300.069,176.528 298.627,171.200 298.628 C 167.269 298.628,164.749 300.404,153.604 311.025 C 151.512 313.018,147.792 316.394,145.338 318.526 C 133.313 328.973,125.694 339.397,122.231 350.142 C 116.036 369.364,115.890 374.587,121.080 391.400 C 124.363 402.039,125.483 404.422,129.632 409.610 C 131.485 411.925,133.696 414.768,134.547 415.927 C 135.852 417.706,139.568 420.948,147.161 426.934 C 150.260 429.378,165.337 435.093,173.810 437.037 C 179.873 438.428,189.716 437.939,196.400 435.916 C 209.147 432.056,216.189 428.991,220.938 425.233 C 222.512 423.988,225.572 421.659,227.737 420.058 C 231.446 417.315,235.341 413.872,244.353 405.371 C 246.469 403.374,249.874 400.340,251.919 398.627 C 253.965 396.914,255.905 395.106,256.231 394.609 C 256.556 394.113,258.303 392.478,260.111 390.977 C 261.920 389.477,265.316 386.438,267.657 384.225 C 276.721 375.655,281.098 371.639,283.600 369.596 C 285.030 368.428,287.730 365.988,289.600 364.173 C 291.470 362.357,294.080 359.977,295.400 358.882 C 296.720 357.788,298.520 356.132,299.400 355.203 C 300.280 354.273,302.800 351.958,305.000 350.058 C 307.200 348.157,310.303 345.398,311.897 343.926 C 315.840 340.283,326.928 331.751,329.245 330.577 C 338.620 325.827,358.597 325.635,368.312 330.203 C 375.876 333.759,386.399 344.917,389.033 352.173 C 392.927 362.900,391.852 381.780,386.932 389.070 C 382.571 395.533,373.176 405.368,363.964 413.118 C 362.317 414.502,360.755 415.980,360.492 416.402 C 360.229 416.823,357.982 418.859,355.499 420.927 C 353.015 422.994,350.377 425.386,349.636 426.243 C 348.894 427.099,346.806 429.060,344.996 430.600 C 341.749 433.362,336.581 438.123,328.655 445.652 C 326.425 447.771,323.250 450.620,321.600 451.983 C 319.950 453.347,318.202 454.963,317.715 455.575 C 317.228 456.188,315.248 458.009,313.315 459.624 C 311.382 461.238,308.084 464.188,305.987 466.179 C 299.999 471.865,291.882 479.020,280.319 488.804 C 279.064 489.866,276.184 492.017,273.919 493.585 C 271.653 495.152,268.551 497.410,267.024 498.602 C 265.498 499.794,262.191 501.773,259.676 503.001 C 257.162 504.229,253.731 506.114,252.052 507.190 C 247.474 510.125,243.618 511.797,237.250 513.609 C 234.087 514.509,228.816 516.225,225.536 517.423 C 212.781 522.083,207.757 522.827,187.274 523.092 C 162.436 523.414,153.476 522.321,140.521 517.389 C 137.924 516.400,132.937 514.773,129.439 513.772 C 122.214 511.705,119.308 510.487,115.129 507.775 C 113.518 506.730,109.770 504.648,106.800 503.150 C 103.830 501.651,99.960 499.322,98.200 497.973 C 96.440 496.624,93.110 494.246,90.800 492.688 C 88.490 491.130,85.160 488.488,83.400 486.818 C 81.640 485.148,78.805 482.636,77.100 481.237 C 75.395 479.837,74.000 478.575,74.000 478.432 C 74.000 478.289,71.827 475.839,69.171 472.986 C 66.515 470.134,63.515 466.540,62.504 465.000 C 61.494 463.460,59.172 460.252,57.345 457.870 C 55.096 454.940,53.039 451.600,50.980 447.535 C 49.307 444.232,47.154 440.317,46.195 438.835 C 43.771 435.087,42.714 432.533,40.795 425.784 C 39.881 422.569,38.148 417.311,36.943 414.101 C 32.507 402.283,31.602 396.256,31.314 376.621 C 30.967 352.873,31.993 344.424,36.819 331.308 C 37.918 328.323,39.632 323.072,40.630 319.640 C 42.657 312.662,43.962 309.593,46.768 305.200 C 47.822 303.550,49.964 299.680,51.527 296.600 C 53.091 293.520,55.269 289.894,56.368 288.543 C 57.467 287.192,59.502 284.457,60.890 282.466 C 65.493 275.864,77.575 263.334,91.230 251.000 C 103.741 239.700,109.631 233.080,109.582 230.374 C 109.532 227.559,105.017 220.689,99.216 214.600 C 97.330 212.620,94.981 210.010,93.996 208.800 C 93.011 207.590,90.494 204.602,88.402 202.160 C 86.311 199.718,83.716 196.208,82.636 194.360 C 81.556 192.512,79.377 189.110,77.794 186.800 C 74.115 181.431,73.682 180.554,71.260 173.584 C 70.155 170.403,68.332 165.663,67.209 163.050 C 62.926 153.088,62.200 147.979,62.200 127.800 C 62.200 107.015,62.856 102.342,67.202 92.198 C 68.332 89.559,70.159 84.800,71.261 81.622 C 73.682 74.643,74.484 73.018,78.178 67.600 C 79.754 65.290,81.933 61.896,83.021 60.059 C 84.110 58.221,86.421 55.161,88.157 53.259 C 89.893 51.356,92.309 48.592,93.524 47.115 C 94.740 45.639,96.915 43.479,98.358 42.315 C 99.802 41.152,102.410 38.892,104.154 37.293 C 105.899 35.693,108.568 33.623,110.085 32.693 C 111.602 31.762,115.128 29.498,117.922 27.663 C 125.243 22.852,125.599 22.670,132.200 20.391 C 135.500 19.252,140.469 17.364,143.243 16.197 C 155.296 11.122,169.717 9.502,191.197 10.808 M174.515 97.060 C 170.620 97.983,159.779 103.544,157.523 105.776 C 155.392 107.885,151.531 115.062,149.748 120.228 C 146.480 129.700,151.033 143.413,160.978 154.045 C 162.750 155.940,165.280 158.657,166.600 160.084 C 170.969 164.808,177.427 167.816,181.085 166.831 C 183.713 166.123,188.541 162.637,193.688 157.732 C 196.282 155.260,199.047 152.747,199.832 152.148 C 205.134 148.104,211.609 133.268,211.067 126.407 C 210.499 119.224,204.903 107.533,200.530 104.393 C 191.819 98.137,181.838 95.324,174.515 97.060 " stroke="none" fill="#ffffff" fill-rule="evenodd"></path></g></svg>